<?xml version="1.0" encoding="UTF-8"?><!DOCTYPE svg PUBLIC "-//W3C//DTD SVG 1.1//EN" "http://www.w3.org/Graphics/SVG/1.1/DTD/svg11.dtd"><!-- Creator: CorelDRAW 2019 (64 Bit) --><svg xmlns="http://www.w3.org/2000/svg" xmlns:xlink="http://www.w3.org/1999/xlink" xmlns:xodm="http://www.corel.com/coreldraw/odm/2003" xml:space="preserve" width="107.339mm" height="113.013mm" version="1.1" style="shape-rendering:geometricPrecision; text-rendering:geometricPrecision; image-rendering:optimizeQuality; fill-rule:evenodd; clip-rule:evenodd" viewBox="0 0 9627.55 10136.4">
 <defs>
  <style type="text/css">
   <![CDATA[
    .fil0 {fill:white}
    .fil10 {fill:#003049;fill-rule:nonzero}
    .fil7 {fill:#6f6f6f;fill-rule:nonzero}
    .fil2 {fill:#aaaaaa;fill-rule:nonzero}
    .fil1 {fill:#c6c6c6;fill-rule:nonzero}
    .fil6 {fill:#5e5e5e;fill-rule:nonzero}
    .fil5 {fill:#6f6f6f;fill-rule:nonzero}
    .fil3 {fill:#828282;fill-rule:nonzero}
    .fil4 {fill:#aaaaaa;fill-rule:nonzero}
    .fil9 {fill:#aaaaaa;fill-rule:nonzero}
    .fil8 {fill:white;fill-rule:nonzero}
   ]]>
  </style>
 </defs>
 <g id="Camada_x0020_1">
  <metadata id="CorelCorpID_0Corel-Layer"/>
  <g id="_1526914968416">
   <path class="fil0" d="M8845.73 2476.78c33.37,41.6 61.37,89.51 82.7,144.19 200.97,88.3 314.58,268.81 323.83,482.14 246.99,82.3 399.43,343.2 342.25,602.52 -32.28,146.39 -125.37,265.14 -246.88,335.55 202.27,105.42 319.1,338.85 267.89,571.02 -46.81,212.3 -221.52,366.47 -425.29,399.39 8.93,89.66 15.73,179.52 20.41,269.5 45.32,59.2 76.36,126.81 91.39,199.65 163.25,164.77 187.13,402.72 81.56,616.01 -50.31,101.64 -123.1,184 -216.58,241.84 -2.91,21.39 -5.94,42.76 -9.1,64.1 63.67,143.74 71.36,299.07 6.65,442.59 36.34,213.77 -61.78,408.5 -243.47,526.96 -47.5,136.49 -100.82,270.94 -160.06,402.77 -664.4,1478.65 -2160.73,2306.41 -3746.84,2358.45 -79.92,2.63 -159.89,3.65 -239.86,2.43 -11.33,0.05 -22.65,-0.22 -33.98,-0.39 -1663.18,-26.57 -3173.45,-801.87 -3873.69,-2360.51 -128.85,-286.8 -229.72,-585.96 -303.55,-891.55 -263.49,-53.96 -449.22,-251.61 -475.4,-539.9 -20.58,-226.51 54.07,-448.38 248.82,-567.87 19.69,-40.12 44.27,-77.49 73.5,-111.16 -0.25,-16.99 -0.44,-33.98 -0.55,-50.99 -139.87,-94.93 -227,-254.34 -227,-428.33 0,-111.84 36.02,-217.84 99.13,-304.52 -104.29,-95.59 -168.23,-232.64 -168.23,-381.85 0,-242.95 167.73,-446.97 393.62,-502.54 -124.3,-24.27 -241.62,-78.44 -334.03,-168.92 -124.84,-122.23 -178.58,-288.03 -172.51,-460.54 8.22,-233.64 112.91,-449.19 327.68,-542.79 127.83,-201.23 360.62,-276.51 597.78,-214.68 103.23,26.91 193.16,76.29 266.2,146.7 4.86,-2.12 9.76,-4.16 14.69,-6.12 55.83,-82.22 114.84,-162.29 177,-239.86 -121,-95.74 -196.79,-243.69 -196.79,-406.18 0,-231.66 152.48,-427.91 362.47,-493.85 -13.52,-13.11 -26.68,-26.36 -39.43,-39.7 -314.61,-329.4 -368.49,-787.05 15.48,-1089.63 214.45,-169.01 492.21,-243.93 735.64,-94.19 72.09,-16.82 145.05,-19.8 215.71,-8.3 60.87,-218.09 261.1,-378.23 498.51,-378.23 225.23,0 416.97,144.12 488.03,345.1 432.7,-124.42 907.17,-170.57 1350.42,-170.57 515.37,0 1079.36,63.13 1565.29,240.31 208.69,76.1 431.31,186.79 600.56,343.52 74.95,-78.14 169.69,-136.37 275.93,-175.79 257.77,-95.63 542.14,-82.6 728.87,136.15 276.4,22.23 468.29,230.13 507.18,515.59 12.99,95.45 5.19,193.14 -22.84,285.06 81.06,-24.13 168.9,-28.76 256.57,-9.43 276.95,61.06 455.02,339.83 393.94,616.78 -34.61,156.96 -139.14,282.15 -273.62,350.04z"/>
   <path class="fil1" d="M8393.01 7644.09c-599.83,1334.82 -1958.38,2068.28 -3386.23,2115.11 -75.87,2.5 -151.45,3.43 -226.69,2.18 -9.39,0.32 -18.44,0 -27.82,-0.3 -1494.36,-23.73 -2869.44,-698.5 -3506.74,-2116.99 -557.32,-1240.53 -555.47,-2758.02 -37.46,-4000.09 227.31,-545.2 589.19,-1045.07 1067.23,-1396.66 193.82,-142.32 422.56,-209.77 542.82,-407.54 20.69,61.16 61.98,119.98 121.19,175.4 35.89,34.04 78.98,66.86 128.02,98.05 23.39,15 48.08,29.34 74.31,43.72 45.57,24.98 95.54,48.7 148.9,71.5 40.62,17.19 83.38,33.71 128.05,49.34 85.84,30.27 178.6,57.75 277.88,82.1 41.53,9.99 84.32,19.7 128.04,28.73 102.71,21.24 210.77,39.36 323.78,54.02 41.83,5.32 84.62,10.31 128.01,14.38 98.04,10.31 199.21,17.48 302.58,21.84 42.46,1.88 84.92,3.44 128.01,4.06 37.15,0.93 74.62,1.26 112.42,1.26 66.16,0 131.75,-1.26 196.71,-3.44 43.05,-1.56 85.52,-3.44 128.02,-6.24 113.34,-6.55 223.54,-16.56 329.71,-29.98 43.39,-5.32 86.18,-11.27 128.02,-17.8 108.33,-16.57 211.68,-36.52 309.11,-59.32 44.04,-10.64 86.47,-21.24 128.01,-32.78 88.36,-24.68 170.8,-51.51 246.67,-81.19 44.98,-17.18 87.74,-35.29 128.02,-54.32 29.04,-13.75 56.83,-27.8 83.37,-42.16 53.4,-29.02 101.18,-59.65 143.01,-91.48 52.78,-40.27 95.84,-82.74 128.02,-126.78 23.45,-32.27 41.13,-65.43 52.54,-99.28l0.05 0.1c119.91,197.97 348.78,265.41 542.65,407.8 478.06,351.59 839.96,851.45 1067.27,1396.66 518,1242.07 519.89,2759.56 -37.46,4000.09z"/>
   <path class="fil2" d="M2892.25 1558.09l0 0.01c14.11,16.74 29.7,33.25 47.05,49.34 2.83,2.64 5.7,5.26 8.6,7.88 -20.64,-18.71 -39.22,-37.8 -55.65,-57.23zm-74.14 281.72c-120.26,197.76 -349,265.21 -542.82,407.54 -478.04,351.59 -839.93,851.49 -1067.23,1396.66 -518,1242.07 -519.86,2759.56 37.46,4000.09 637.3,1418.5 2012.39,2093.26 3506.77,2116.99 6.64,0.21 13.09,0.41 19.61,0.41 2.72,0 5.44,-0.03 8.19,-0.12 22.44,0.39 44.91,0.57 67.44,0.57 52.93,0 106.03,-0.99 159.25,-2.74 1427.85,-46.83 2786.41,-780.29 3386.23,-2115.11 557.36,-1240.53 555.47,-2758.02 37.46,-4000.09 -227.31,-545.17 -589.21,-1045.07 -1067.23,-1396.66 -193.91,-142.4 -422.77,-209.84 -542.68,-407.8l-0.05 -0.1c-11.41,33.85 -29.1,67.01 -52.54,99.28 -32.18,44.04 -75.24,86.51 -128.02,126.78 -41.83,31.82 -89.61,62.45 -143.01,91.48 -6.34,3.43 -12.75,6.85 -19.24,10.25 137.09,180.85 311.17,280.54 454.65,362.7 57.17,32.75 111.13,63.68 153.38,94.71 389.03,286.11 704.53,700.9 912.45,1199.64 474.37,1137.43 461.94,2527.56 -32.4,3627.85 -246.62,548.87 -660.35,1009.15 -1196.47,1330.95 -191.59,115.04 -396.39,211.52 -611,288.57 -350.07,168.66 -821,272.01 -1339.03,272.01 -495.51,0 -947.92,-94.56 -1292.68,-250.39 -846.81,-280.39 -1496.82,-846.43 -1853.84,-1641.09 -494.38,-1100.32 -506.77,-2490.46 -32.42,-3627.91 207.95,-498.71 523.47,-913.5 912.17,-1199.38 42.59,-31.28 96.62,-62.21 153.81,-94.99 143.45,-82.16 317.52,-181.83 454.64,-362.51 -6.53,-3.44 -12.97,-6.9 -19.33,-10.39 -26.24,-14.38 -50.92,-28.72 -74.31,-43.72 -49.03,-31.2 -92.12,-64.01 -128.02,-98.05 -59.21,-55.42 -100.5,-114.24 -121.19,-175.4zm3928.44 -282.02l0 -0.02c-17.79,21.1 -38.11,41.78 -60.86,62 22.74,-20.19 43.08,-40.85 60.86,-61.99zm-112.5 104.08c-33.58,25.22 -71.01,49.62 -112.01,73.12 41,-23.47 78.4,-47.85 112.01,-73.12zm-3371.79 146.31c-95.42,-42.22 -178.17,-88.37 -246.11,-137.71 16.21,11.82 33.26,23.5 51.17,35.03 57.02,36.27 122.15,70.55 194.94,102.68z"/>
   <path class="fil3" d="M6835.71 1341.11l0 407.77c0,65.56 -23.73,129.26 -67.74,189.83 -32.18,44.05 -75.24,86.51 -128.01,126.79 -41.84,31.82 -89.62,62.45 -143.01,91.48 -26.54,14.37 -54.34,28.41 -83.38,42.16 -40.28,19.03 -83.04,37.14 -128.02,54.32 -75.87,29.67 -158.31,56.51 -246.66,81.19 -41.55,11.53 -83.97,22.15 -128.02,32.78 -97.42,22.8 -200.78,42.76 -309.11,59.31 -41.83,6.55 -84.62,12.49 -128.01,17.81 -106.17,13.42 -216.37,23.43 -329.72,29.98 -42.5,2.8 -84.96,4.68 -128.01,6.24 -64.97,2.18 -130.56,3.44 -196.72,3.44 -37.8,0 -75.27,-0.33 -112.41,-1.26 -43.09,-0.63 -85.55,-2.18 -128.02,-4.06 -103.36,-4.36 -204.54,-11.53 -302.58,-21.84 -43.39,-4.07 -86.19,-9.06 -128.02,-14.38 -113.01,-14.67 -221.07,-32.78 -323.77,-54.02 -43.72,-9.03 -86.51,-18.74 -128.05,-28.73 -99.27,-24.35 -192.02,-51.84 -277.88,-82.11 -44.67,-15.62 -87.43,-32.15 -128.05,-49.33 -53.37,-22.8 -103.33,-46.52 -148.9,-71.5 -26.24,-14.38 -50.92,-28.72 -74.32,-43.72 -49.03,-31.2 -92.12,-64.01 -128.01,-98.05 -88.06,-82.42 -136.47,-172.35 -136.47,-266.33l0 -407.77c0,70.54 27.48,138.94 78.67,203.88 16.86,21.22 35.92,42.16 57.8,62.45 36.18,33.71 78.97,66.49 128.01,98.04 64.31,40.91 138.92,79.31 223.22,114.9 40.61,17.18 83.38,33.74 128.05,49.33 85.85,30.28 178.6,57.76 277.88,81.82 41.54,10.31 84.33,19.97 128.05,29.05 102.7,21.21 210.76,39.32 323.77,53.7 42.16,5.61 84.62,10.6 128.02,14.67 98.03,10.27 199.22,17.48 302.58,21.84 42.14,1.88 84.93,3.44 128.02,4.06 37.14,0.95 74.62,1.26 112.41,1.26 66.49,0 132.08,-1.26 196.72,-3.44 43.05,-1.55 85.84,-3.44 128.01,-6.24 113.34,-6.57 223.55,-16.56 329.72,-29.98 43.39,-5.32 86.18,-11.24 128.01,-18.11 108.33,-16.26 211.69,-36.22 309.11,-59.35 44.05,-9.97 86.47,-20.92 128.02,-32.45 88.36,-24.68 170.79,-51.52 246.66,-80.89 44.98,-17.47 87.74,-35.58 128.02,-54.61 88.07,-41.24 163.96,-85.88 226.39,-133.64 44.94,-34.36 83.06,-70.25 113.04,-107.42l4.04 -4.99c51.21,-64.94 78.68,-133.34 78.68,-203.88z"/>
   <path class="fil4" d="M6835.71 1341.11c0,70.54 -27.46,138.94 -78.68,203.88 -241.96,306.61 -1017.9,531.12 -1937.73,531.12 -919.89,0 -1695.77,-224.51 -1937.79,-531.12 -51.19,-64.94 -78.67,-133.34 -78.67,-203.88 0,-406.24 902.67,-735.34 2016.46,-735.34 1113.73,0 2016.41,329.1 2016.41,735.34z"/>
   <path class="fil5" d="M6602.69 1305.84c0,51.67 -24.06,101.75 -68.94,149.32 -212.13,224.57 -892.33,388.98 -1698.68,388.98 -806.36,0 -1486.54,-164.41 -1698.67,-388.98 -44.88,-47.57 -68.96,-97.65 -68.96,-149.32 0,-297.5 791.3,-538.5 1767.63,-538.5 976.34,0 1767.61,241 1767.61,538.5z"/>
   <path class="fil6" d="M6602.77 1305.82c0,51.82 -24.02,101.77 -68.96,149.27 -48.43,51.19 -121.17,99.26 -214.19,142.98 62.12,-34.96 112.09,-72.44 147.98,-111.76 43.42,-47.48 66.81,-97.45 66.81,-149.27 0,-297.55 -767.79,-538.62 -1715.11,-538.62 -947.34,0 -1715.13,241.07 -1715.13,538.62 0,51.82 23.39,101.78 66.79,149.27l6.57 6.87c-15.29,-12.49 -29.04,-25.3 -41.2,-38.09 -44.65,-47.49 -69,-97.45 -69,-149.27 0,-297.56 791.52,-538.63 1767.87,-538.63 976.07,0 1767.58,241.07 1767.58,538.63zm-1669.69 891.77c0,0 -9.62,12.61 -16.49,31.47 -7.62,18.85 -12.23,44.01 -12.31,69.17 0.03,25.16 4.57,50.32 12.25,69.17 6.84,18.86 16.55,31.45 16.55,31.45 0,0 9.69,-12.58 16.57,-31.45 7.67,-18.85 12.19,-44.01 12.24,-69.17 -0.12,-25.16 -4.69,-50.32 -12.34,-69.17 -6.84,-18.86 -16.47,-31.47 -16.47,-31.47zm231.56 -16.58c0,0 -9.62,15.42 -16.47,38.55 -7.61,23.12 -12.22,53.94 -12.34,84.78 0.06,30.84 4.61,61.65 12.29,84.78 6.84,23.12 16.52,38.54 16.52,38.54 0,0 9.69,-15.42 16.56,-38.54 7.71,-23.13 12.22,-53.94 12.25,-84.78 -0.09,-30.84 -4.66,-61.65 -12.31,-84.78 -6.87,-23.13 -16.49,-38.55 -16.49,-38.55zm197.58 -41.68c0,0 -9.68,16.22 -16.49,40.52 -7.65,24.35 -12.23,56.77 -12.31,89.23 0.03,32.45 4.55,64.9 12.25,89.22 6.82,24.33 16.56,40.56 16.56,40.56 0,0 9.69,-16.23 16.49,-40.56 7.7,-24.32 12.23,-56.77 12.25,-89.22 -0.06,-32.46 -4.66,-64.87 -12.31,-89.23 -6.81,-24.31 -16.43,-40.52 -16.43,-40.52zm247.84 0c0,0 -9.62,13.06 -16.43,32.66 -7.65,19.61 -12.25,45.75 -12.34,71.9 0.03,26.15 4.57,52.26 12.25,71.87 6.84,19.63 16.52,32.68 16.52,32.68 0,0 9.71,-13.05 16.56,-32.68 7.68,-19.61 12.22,-45.73 12.25,-71.87 -0.09,-26.15 -4.66,-52.29 -12.34,-71.9 -6.81,-19.6 -16.47,-32.66 -16.47,-32.66zm252.08 -56.54c0,0 -9.62,14.35 -16.46,35.89 -7.65,21.52 -12.22,50.24 -12.34,78.92 0.03,28.72 4.57,57.43 12.25,78.95 6.87,21.54 16.55,35.89 16.55,35.89 0,0 9.69,-14.34 16.57,-35.89 7.7,-21.52 12.22,-50.23 12.24,-78.95 -0.08,-28.68 -4.66,-57.4 -12.34,-78.92 -6.84,-21.54 -16.47,-35.89 -16.47,-35.89zm216.29 -58.98c0,0 -9.62,14.42 -16.46,36.09 -7.65,21.67 -12.26,50.53 -12.34,79.43 0.02,28.86 4.57,57.74 12.28,79.4 6.81,21.63 16.52,36.1 16.52,36.1 0,0 9.71,-14.47 16.52,-36.1 7.7,-21.66 12.23,-50.53 12.26,-79.4 -0.1,-28.9 -4.67,-57.76 -12.32,-79.43 -6.81,-21.67 -16.46,-36.09 -16.46,-36.09zm266.25 -143.1c0,0 -9.62,18.75 -16.43,46.92 -7.69,28.15 -12.26,65.7 -12.34,103.24 0.02,37.53 4.54,75.06 12.24,103.25 6.84,28.15 16.53,46.91 16.53,46.91 0,0 9.7,-18.76 16.55,-46.91 7.69,-28.18 12.23,-65.72 12.26,-103.25 -0.13,-37.54 -4.7,-75.09 -12.34,-103.24 -6.83,-28.16 -16.47,-46.92 -16.47,-46.92zm220.98 -111.61c0,0 -9.62,17.57 -16.47,43.9 -7.65,26.32 -12.19,61.44 -12.28,96.55 0.05,35.09 4.6,70.19 12.31,96.53 6.87,26.29 16.55,43.83 16.55,43.83 0,0 9.69,-17.54 16.53,-43.87 7.67,-26.32 12.19,-61.44 12.22,-96.52 -0.12,-35.11 -4.73,-70.19 -12.37,-96.52 -6.87,-26.32 -16.49,-43.9 -16.49,-43.9zm-1865.65 421.84c0,0 9.62,12.58 16.46,31.45 7.65,18.88 12.22,44.01 12.31,69.16 -0.04,25.17 -4.57,50.33 -12.26,69.22 -6.83,18.85 -16.51,31.44 -16.51,31.44 0,0 -9.72,-12.58 -16.57,-31.44 -7.67,-18.89 -12.22,-44.05 -12.24,-69.22 0.08,-25.15 4.69,-50.28 12.34,-69.16 6.81,-18.86 16.47,-31.45 16.47,-31.45zm-231.6 -16.58c0,0 9.66,15.43 16.47,38.52 7.65,23.12 12.24,53.97 12.34,84.8 -0.03,30.84 -4.57,61.65 -12.25,84.78 -6.84,23.12 -16.56,38.55 -16.56,38.55 0,0 -9.69,-15.43 -16.52,-38.55 -7.7,-23.13 -12.21,-53.94 -12.24,-84.78 0.05,-30.84 4.66,-61.68 12.31,-84.8 6.83,-23.1 16.45,-38.52 16.45,-38.52zm-197.5 -41.71c0,0 9.62,16.22 16.43,40.54 7.68,24.36 12.24,56.78 12.34,89.24 -0.04,32.45 -4.55,64.9 -12.25,89.23 -6.84,24.32 -16.52,40.55 -16.52,40.55 0,0 -9.72,-16.23 -16.57,-40.55 -7.67,-24.32 -12.23,-56.78 -12.24,-89.23 0.09,-32.45 4.66,-64.87 12.31,-89.24 6.84,-24.32 16.5,-40.54 16.5,-40.54zm-247.91 0c0,0 9.62,13.09 16.47,32.68 7.65,19.6 12.24,45.75 12.34,71.86 -0.03,26.15 -4.57,52.3 -12.25,71.9 -6.88,19.61 -16.56,32.67 -16.56,32.67 0,0 -9.7,-13.06 -16.55,-32.67 -7.69,-19.6 -12.23,-45.74 -12.26,-71.9 0.13,-26.11 4.69,-52.26 12.34,-71.86 6.84,-19.6 16.47,-32.68 16.47,-32.68zm-252.05 -56.51c0,0 9.62,14.33 16.44,35.85 7.67,21.55 12.24,50.26 12.34,78.95 -0.04,28.72 -4.55,57.4 -12.26,78.96 -6.84,21.51 -16.52,35.85 -16.52,35.85 0,0 -9.71,-14.34 -16.56,-35.85 -7.68,-21.55 -12.22,-50.24 -12.24,-78.96 0.08,-28.68 4.66,-57.39 12.31,-78.95 6.84,-21.52 16.49,-35.85 16.49,-35.85zm-216.28 -58.99c0,0 9.62,14.43 16.46,36.09 7.65,21.67 12.23,50.53 12.34,79.4 -0.05,28.89 -4.57,57.75 -12.24,79.42 -6.88,21.63 -16.56,36.09 -16.56,36.09 0,0 -9.71,-14.46 -16.56,-36.09 -7.68,-21.67 -12.23,-50.53 -12.24,-79.42 0.08,-28.87 4.68,-57.74 12.34,-79.4 6.83,-21.66 16.46,-36.09 16.46,-36.09zm-266.28 -143.11c0,0 9.65,18.77 16.46,46.92 7.65,28.15 12.26,65.71 12.34,103.25 -0.02,37.53 -4.57,75.06 -12.24,103.25 -6.88,28.15 -16.56,46.91 -16.56,46.91 0,0 -9.69,-18.76 -16.52,-46.91 -7.69,-28.18 -12.23,-65.72 -12.26,-103.25 0.1,-37.54 4.66,-75.09 12.32,-103.25 6.83,-28.15 16.46,-46.92 16.46,-46.92zm-220.95 -111.6c0,0 9.62,17.57 16.43,43.9 7.65,26.32 12.23,61.44 12.31,96.52 -0.05,35.11 -4.6,70.22 -12.31,96.53 -6.87,26.32 -16.55,43.87 -16.55,43.87 0,0 -9.69,-17.54 -16.53,-43.87 -7.68,-26.33 -12.22,-61.44 -12.22,-96.55 0.12,-35.08 4.73,-70.19 12.37,-96.49 6.84,-26.32 16.49,-43.9 16.49,-43.9zm3680.59 -155.8c0,0 -9.69,15.57 -16.47,38.9 -7.69,23.31 -12.25,54.45 -12.34,85.56 0.04,31.11 4.54,62.21 12.25,85.55 6.84,23.35 16.56,38.88 16.56,38.88 0,0 9.68,-15.53 16.52,-38.88 7.68,-23.34 12.19,-54.43 12.25,-85.55 -0.09,-31.11 -4.69,-62.25 -12.34,-85.56 -6.81,-23.33 -16.43,-38.9 -16.43,-38.9z"/>
   <path class="fil7" d="M6776.23 8339.25c0,554.72 -876.17,1004.39 -1956.96,1004.39 -1080.79,0 -1956.95,-449.67 -1956.95,-1004.39 0,-158.24 71.4,-307.9 198.41,-441.04 6.1,8.49 12.26,16.94 18.49,25.33 204.48,273.55 451.14,466.02 722.88,618.45l0 0.35c305.63,172.1 642.85,295.08 987.03,429.29l0.24 0.09 -0.24 0.1c2.4,0.85 4.88,1.74 7.35,2.69l0 0.01 0.3 0.11 0.01 0.01 0.3 0.12 0 0.01 0.61 0.23 0.02 0 0.29 0.12 0.02 0 0.3 0.12 0.02 0 0.29 0.13 0.02 0 1.83 0.72 0.04 0.01 1.5 0.59 0.05 0.02 0.25 0.1 0.06 0.02 0.25 0.1 0.05 0.03 0.25 0.11 0.05 0.02 0.25 0.1 0.05 0.03 0.26 0.09 0.04 0.03 5.18 2.11 6.21 2.27 0.05 0.03 0.49 0.19 0.06 0.03 0.48 0.18 0.06 0.02 0.48 0.19 0.06 0.02c9.01,3.46 17,6.52 24.06,9.35 6.28,-2.72 13.98,-5.64 22.65,-8.94l0.04 -0.01 0.5 -0.19 0.04 -0.01 0.51 -0.2 0.04 -0.02 0.51 -0.19 0.04 -0.02 7.36 -2.69c105.07,-39.46 210.36,-78.86 314.83,-119.62l0.04 -0.01 16.44 -6.43 0.04 -0.01 16.43 -6.46 0.04 -0.02 16.41 -6.48 0.05 -0.02 3.1 -1.23c229.2,-90.72 453.63,-189.28 662.56,-310.96 186.58,-108.77 360.49,-236.1 514.38,-392.91 30.41,-31.05 59.95,-63.2 88.61,-96.49l0.16 -0.19 0.73 -0.84 3.09 -3.61 3.09 -3.63 0.13 -0.16 5.14 -6.05 0.9 -1.06 3.07 -3.65 0.21 -0.25 5.91 -7.08 3.05 -3.69c9.15,-11.04 18.2,-22.21 27.16,-33.52l3 -3.78 2.97 -3.78 2.97 -3.79 2.97 -3.8 1.86 -2.39 1.1 -1.43c8.85,-11.44 17.64,-23.03 26.33,-34.74 113.6,127.25 177.02,268.77 177.02,417.9z"/>
   <path class="fil6" d="M6804.89 7575.02c-8.64,18.63 -17.6,37.17 -26.84,55.63 -47.28,94.26 -102.57,185.2 -164.43,271.06 -61.11,84.35 -126.59,161.86 -196.83,233.55 -153.89,156.81 -327.8,284.14 -514.38,392.91 -319.83,186.27 -675.98,318.34 -1029.96,451.13 -12.4,4.74 -23.29,8.75 -31.68,12.37 -9.07,-3.62 -19.64,-7.62 -31.98,-12.37 -6.57,-2.54 -13.12,-5.11 -19.66,-7.67 -344.18,-134.21 -681.4,-257.18 -987.03,-429.29l0 -0.35c-271.74,-152.42 -518.4,-344.89 -722.88,-618.45 -21.1,-28.41 -41.46,-57.53 -61.1,-86.95 -59.28,-88.4 -111.28,-180.79 -154.93,-276.05 436,13.34 1129.17,-141.48 1041.68,-388.3 -77.84,-221.19 -868.41,-388.57 -1193.64,-448.93 -14.79,-2.67 -28.34,-5.04 -40.93,-7.14l0.03 -0.51c10.17,-215.7 70.19,-430.34 189.9,-632.29 327.42,-550.77 1089.95,-626.85 1602.93,-293.93 93.15,60.76 180.81,137.5 245.19,229.2l0 0.32c26.94,37.84 49.47,78.23 66.94,121.16 3.28,-8.01 6.56,-15.98 10.21,-24.01 61.83,-136.08 177.5,-245.23 301.93,-326.67 209.19,-135.71 459.84,-203.39 705.79,-198.63l1.1 0c15.28,0.32 30.18,1.09 45.47,1.78 3.62,0 7.27,0.38 10.9,0.73 9.85,0.74 19.29,1.46 29.11,2.55 10.93,0.76 21.83,1.84 32.76,3.3 13.09,1.43 25.83,3.27 38.93,5.05 21.07,2.92 41.81,6.58 62.21,11.32 11.25,2.15 22.92,4.35 33.84,7.27l2.56 0.71c13.79,2.92 27.26,6.55 40.73,10.2 47.66,13.47 94.21,29.48 139.68,49.47 12.4,5.09 24.73,10.89 37.12,16.71 12.35,5.85 24.76,12.05 36.76,18.59 12.38,6.17 24.39,13.1 36.36,20.03 14.9,8.35 29.46,17.43 43.65,26.87 12.02,7.66 24.03,15.67 35.66,24.37 13.81,9.51 27.29,19.67 40.39,30.23l1.45 1.12c11.26,9.08 22.22,18.14 32.73,27.64 14.94,13.09 29.84,26.53 44.05,40.73l1.42 1.09c34.93,27.28 68.44,57.47 100.07,89.86 10.56,10.89 20.75,21.83 30.93,33.11 40.39,45.47 77.15,95.3 109.87,150.28 49.1,82.58 88.03,168.06 117.13,254.65 9.85,29.11 18.59,58.21 26.18,87.32 3.66,14.56 7.27,29.46 10.94,44.36 6.92,29.49 12.35,58.94 17.1,88.4 4.16,26.01 7.49,52.26 10.22,78.6 -10.95,1.86 -22.64,3.91 -35.22,6.18 -325.23,60.36 -1115.78,227.74 -1193.64,448.93 -87.69,247.41 609.02,402.39 1044.83,388.22l26.39 14.56z"/>
   <path class="fil5" d="M4290.8 6192.95c-25.07,0 -50.28,-8.22 -71.31,-25.17 -77.75,-62.78 -170.07,-104.15 -274.32,-122.98 -61.78,-11.18 -102.75,-70.27 -91.61,-131.96 11.15,-61.76 70.13,-102.87 131.96,-91.59 140.23,25.31 270.47,84.01 376.65,169.76 48.85,39.38 56.48,110.9 17.06,159.74 -22.41,27.79 -55.32,42.2 -88.42,42.2z"/>
   <path class="fil5" d="M3004.4 6678.79c-6.99,0 -14.06,-0.66 -21.19,-1.98 -61.63,-11.63 -102.19,-71.04 -90.56,-132.73 71.45,-378.84 377,-663.83 778.44,-725.94 62,-9.57 120.05,32.84 129.65,94.85 9.59,62.04 -32.89,120.08 -94.87,129.65 -231.68,35.82 -525.15,199.7 -589.97,543.57 -10.31,54.56 -57.98,92.57 -111.5,92.57z"/>
   <path class="fil3" d="M6613.43 7901.77c-195,270.75 -439.6,467.99 -711.09,626.26 -319.6,186.26 -675.89,318.44 -1029.89,451.37 -12.54,4.52 -23.1,8.7 -31.8,12.08 -9.12,-3.38 -19.32,-7.56 -31.86,-12.08 -6.4,-2.65 -13.23,-5.33 -19.66,-7.59 351.74,-132.13 705.42,-263.53 1022.71,-448.7 271.47,-158.28 516.06,-355.54 711.07,-626.25 75.83,-105.35 141.67,-218.06 195.45,-335.52 20.51,0.04 40.59,-0.24 60.14,-0.88l26.39 14.57c-53.03,114.3 -117.51,224.02 -191.46,326.74zm359.49 -1113.22c0.08,-24.3 -0.44,-48.6 -1.6,-72.88l-8.8 1.47c-19.24,-190.09 -77.32,-377.5 -181.76,-553.3 -65.11,-109.46 -147.27,-200.3 -240.82,-273.42l-1.12 -1.11c-197.65,-195.74 -468.36,-293.1 -745.53,-298.38 244.59,22.72 478.98,119.28 655.02,293.43l1.19 1.12c93.48,73.12 175.64,163.96 240.82,273.41 108.29,182.34 166.75,377.17 183.71,574.51 -350.79,67.5 -1066.33,228.96 -1140.35,438.85 -21.09,59.48 3.26,113.6 58.34,161.33 -11.19,-28.01 -12.59,-57.62 -2.1,-88.7 78.02,-230.98 902.17,-403.78 1183.01,-456.33zm-4307.29 0c-0.08,-24.3 0.44,-48.6 1.6,-72.88 13.44,2.22 28,4.76 44.01,7.65 325.23,60.36 1115.79,227.74 1193.64,448.93 21.09,59.48 -3.26,113.6 -58.34,161.33 11.19,-28.01 12.6,-57.62 2.11,-88.7 -78.03,-230.98 -902.18,-403.78 -1183.02,-456.33z"/>
   <path class="fil8" d="M3112.16 7493.51c0,0 354.67,0 400.18,-109.16 45.47,-109.15 -627.58,72.77 -400.18,109.16z"/>
   <path class="fil8" d="M3651.4 7316.99c0,34.71 -28.14,62.85 -62.85,62.85 -34.75,0 -62.92,-28.14 -62.92,-62.85 0,-34.71 28.17,-62.87 62.92,-62.87 34.71,0 62.85,28.16 62.85,62.87z"/>
   <path class="fil8" d="M6526.39 7493.51c0,0 -354.68,0 -400.19,-109.16 -45.47,-109.15 627.58,72.77 400.19,109.16z"/>
   <path class="fil8" d="M5987.14 7316.99c0,34.71 28.14,62.85 62.85,62.85 34.76,0 62.92,-28.14 62.92,-62.85 0,-34.71 -28.16,-62.87 -62.92,-62.87 -34.71,0 -62.85,28.16 -62.85,62.87z"/>
   <path class="fil5" d="M2040.71 1514.84c-42.29,-25.28 -706.66,-430.97 -303.24,-748.85 283.01,-223.02 377.68,-57.32 408.89,98.76 107.62,-122.66 273.77,-240.22 392.92,8.01 163.85,341.32 -430.25,644.29 -431.91,645.15 -21.88,11.52 -47.29,9.52 -66.66,-3.07zm-221.68 -645.13c-224.69,177.04 145.88,440.05 259.75,513.6 106.77,-60.73 432.37,-265.13 341.78,-453.8 -81.46,-169.76 -268.39,150.39 -268.91,151.29 -11.94,19.87 -34.02,32.85 -58.83,31.99 -36.33,-1.27 -64.77,-31.79 -63.48,-68.12 0.02,-0.96 15.86,-353.23 -210.31,-174.96zm-903.24 2719.15c-32.01,10.94 -585.27,194.91 -571.47,-198.03 9.16,-260.12 133.35,-258.58 237.28,-210.31 -10.2,-117.22 18.96,-244.46 212.94,-193.87 278,72.44 165.64,553.37 165.34,554.72 -5.54,23.28 -22.84,40.7 -44.09,47.49zm-439.86 -193.4c-6.08,172.6 264.54,108.61 363.14,79.66 16.51,-91.45 46.66,-328.62 -77.56,-360.98 -95.4,-24.86 -19.25,190.02 -19.04,190.61 7.54,21.88 3.35,47.08 -13.16,65.55 -24.22,27.08 -65.83,29.37 -92.9,5.15 -0.44,-0.39 -154.76,-143.05 -160.48,20zm1307.26 1650.75c-2.37,-0.08 -833.4,-64.24 -602.81,-540.85 156.99,-324.49 314.7,-216.86 411.1,-90.12 43.41,-157.46 141.59,-335.49 356.71,-164.92 296.48,235.12 -105.31,767.88 -106.46,769.42 -14.09,19.04 -36.54,28.24 -58.54,26.48zm-484.11 -483.59c-124.65,257.68 324.15,331.95 458.49,348.21 69.39,-101.17 272.7,-427.12 108.54,-557.32 -143.26,-113.6 -173.38,227.84 -175.25,251.3 -1.27,24.11 -15.74,46.63 -39.33,57.01 -33.34,14.67 -72.3,-0.47 -86.97,-33.81 -0.39,-0.88 -140.16,-324.4 -265.48,-65.39zm-301.23 1906.92c-13.94,6.9 -532.01,261.58 -566.73,-120.73 -22.29,-245.89 92.49,-263.03 196.39,-231.59 -22.55,-109.29 -7.57,-230.44 182.69,-205.73 274.68,35.68 224.74,503.11 224.64,504.44 -2.08,23.98 -16.78,43.82 -36.99,53.6zm-435.65 -132.59c14.28,157.28 253.82,68.96 344.12,29.83 4.24,-89.83 2.65,-309.71 -112.9,-324.71 -84.84,-10.72 8.5,176.8 8.76,177.32 9.88,20.78 8.69,46.15 -5.41,66.33 -20.81,29.78 -61.85,37.06 -91.63,16.25 -0.44,-0.31 -156.24,-111.76 -142.94,34.98z"/>
   <path class="fil9" d="M2076.66 1459.58c0,0 -637.92,-374.19 -298.42,-641.74 339.53,-267.56 316.89,229.16 316.89,229.16 0,0 248.98,-428.78 384.78,-145.88 135.82,282.91 -403.26,558.45 -403.26,558.45zm-1180.78 2066.58c0,0 -496.55,174.4 -485.73,-133.01 10.82,-307.44 270.15,-66.73 270.15,-66.73 0,0 -118.36,-332.37 97.73,-276.03 216.1,56.32 117.85,475.76 117.85,475.76zm892.96 1454.36c0,0 -737.35,-57.42 -549.1,-446.53 188.27,-389.13 385.22,67.45 385.22,67.45 0,0 36.29,-494.51 282.18,-299.52 245.88,194.99 -118.3,678.6 -118.3,678.6zm-819.54 1429.74c0,0 -446.26,223.04 -472.62,-67.39 -26.37,-290.38 246.15,-94.83 246.15,-94.83 0,0 -150.83,-298.52 59.1,-271.25 209.93,27.31 167.37,433.47 167.37,433.47z"/>
   <path class="fil2" d="M1424.19 6816.77c0,34.23 -14.02,65.43 -36.69,88.14 -22.49,22.7 -53.73,36.69 -88.17,36.69 -34.21,0 -65.39,-13.99 -88.04,-36.59l-0.21 -0.21c-22.6,-22.67 -36.59,-53.86 -36.59,-88.03 0,-34.44 13.99,-65.67 36.59,-88.28 22.78,-22.58 53.99,-36.59 88.25,-36.59 34.43,0 65.67,13.99 88.27,36.59 22.6,22.6 36.59,53.83 36.59,88.28zm-114.3 10.42c2.6,-2.49 4.19,-6.19 4.19,-10.42 0,-4.09 -1.67,-7.83 -4.3,-10.46 -2.63,-2.63 -6.37,-4.3 -10.45,-4.3 -4.22,0 -7.94,1.59 -10.43,4.09 -2.63,2.83 -4.3,6.57 -4.3,10.66 0,4.23 1.59,7.93 4.09,10.42l0.21 0.22c2.49,2.49 6.22,4.08 10.43,4.08 4.08,0 7.82,-1.67 10.56,-4.3zm184.11 -3587.3c0,34.44 -13.99,65.67 -36.59,88.28 -22.59,22.6 -53.83,36.59 -88.27,36.59 -34.31,0 -65.47,-14.05 -88.07,-36.59 -22.81,-22.6 -36.8,-53.83 -36.8,-88.28 0,-34.25 14.02,-65.46 36.69,-88.14 22.5,-22.71 53.73,-36.7 88.18,-36.7 34.23,0 65.39,13.99 88.06,36.59l0.21 0.22c22.6,22.65 36.59,53.83 36.59,88.03zm-114.41 10.46c2.63,-2.63 4.3,-6.37 4.3,-10.46 0,-4.21 -1.59,-7.93 -4.09,-10.42l-0.21 -0.22c-2.49,-2.49 -6.22,-4.08 -10.45,-4.08 -4.09,0 -7.83,1.67 -10.46,4.3 -2.71,2.49 -4.3,6.22 -4.3,10.42 0,4.09 1.67,7.83 4.3,10.46 2.52,2.68 6.3,4.3 10.46,4.3 4.08,0 7.82,-1.67 10.45,-4.3zm-660.47 1270.24c0,34.18 -13.99,65.37 -36.59,88.04l-0.21 0.21c-22.68,22.6 -53.86,36.59 -88.04,36.59 -34.43,0 -65.67,-13.99 -88.28,-36.59 -22.58,-22.81 -36.59,-54.01 -36.59,-88.25 0,-34.25 14.02,-65.46 36.7,-88.14 22.49,-22.7 53.73,-36.7 88.17,-36.7 34.18,0 65.36,14 88.04,36.59l0.21 0.22c22.6,22.65 36.59,53.83 36.59,88.03zm-114.21 10.43c2.5,-2.49 4.09,-6.19 4.09,-10.43 0,-4.21 -1.59,-7.93 -4.09,-10.42l-0.21 -0.22c-2.49,-2.49 -6.19,-4.08 -10.43,-4.08 -4.08,0 -7.82,1.67 -10.45,4.3 -2.71,2.49 -4.3,6.22 -4.3,10.42 0,4.24 1.59,7.94 4.08,10.43 2.84,2.63 6.58,4.3 10.66,4.3 4.24,0 7.94,-1.59 10.43,-4.09l0.21 -0.21zm2482.28 -4031.73c0,34.17 -13.99,65.36 -36.59,88.04l-0.21 0.21c-22.67,22.6 -53.86,36.59 -88.04,36.59 -34.2,0 -65.39,-13.99 -88.03,-36.59l-0.22 -0.21c-22.6,-22.68 -36.59,-53.87 -36.59,-88.04 0,-34.44 13.99,-65.67 36.59,-88.28 22.79,-22.58 53.99,-36.59 88.25,-36.59 34.18,0 65.37,13.99 88.04,36.59l0.21 0.21c22.6,22.66 36.59,53.84 36.59,88.07zm-114.21 10.43c2.5,-2.5 4.09,-6.2 4.09,-10.43 0,-4.24 -1.59,-7.96 -4.09,-10.46l-0.21 -0.21c-2.49,-2.5 -6.19,-4.08 -10.43,-4.08 -4.21,0 -7.93,1.58 -10.42,4.08 -2.63,2.83 -4.3,6.58 -4.3,10.66 0,4.23 1.59,7.93 4.08,10.43l0.22 0.21c2.49,2.49 6.22,4.08 10.42,4.08 4.24,0 7.94,-1.59 10.43,-4.08l0.21 -0.21zm-2184.09 4704.14c0,34.17 -13.99,65.36 -36.59,88.04l-0.21 0.21c-22.67,22.6 -53.86,36.59 -88.04,36.59 -34.2,0 -65.39,-13.99 -88.03,-36.59l-0.22 -0.21c-22.59,-22.68 -36.59,-53.87 -36.59,-88.04 0,-34.2 13.99,-65.39 36.59,-88.04l0.22 -0.21c22.65,-22.6 53.83,-36.59 88.03,-36.59 34.18,0 65.37,13.99 88.04,36.59l0.21 0.21c22.6,22.66 36.59,53.84 36.59,88.04zm-114.21 10.43c2.5,-2.5 4.09,-6.19 4.09,-10.43 0,-4.22 -1.59,-7.93 -4.09,-10.43l-0.21 -0.21c-2.49,-2.49 -6.19,-4.08 -10.43,-4.08 -4.21,0 -7.93,1.59 -10.42,4.08l-0.22 0.21c-2.49,2.5 -4.08,6.22 -4.08,10.43 0,4.24 1.59,7.93 4.08,10.43l0.22 0.21c2.49,2.49 6.22,4.08 10.42,4.08 4.24,0 7.94,-1.59 10.43,-4.08l0.21 -0.21zm749.5 680.96c0,34.23 -14.02,65.44 -36.69,88.14 -22.49,22.71 -53.73,36.7 -88.17,36.7 -34.21,0 -65.39,-13.99 -88.04,-36.59l-0.21 -0.21c-22.6,-22.68 -36.59,-53.87 -36.59,-88.04 0,-34.43 13.99,-65.67 36.59,-88.28 22.78,-22.58 53.99,-36.59 88.25,-36.59 34.43,0 65.67,13.99 88.27,36.59 22.6,22.6 36.59,53.84 36.59,88.28zm-114.3 10.43c2.6,-2.5 4.19,-6.19 4.19,-10.43 0,-4.08 -1.67,-7.83 -4.3,-10.46 -2.63,-2.63 -6.37,-4.29 -10.45,-4.29 -4.22,0 -7.94,1.59 -10.43,4.08 -2.63,2.83 -4.3,6.58 -4.3,10.66 0,4.24 1.59,7.93 4.09,10.43l0.21 0.21c2.49,2.49 6.22,4.08 10.43,4.08 4.08,0 7.82,-1.66 10.56,-4.29zm493.69 -3814.09c0,34.43 -13.99,65.67 -36.59,88.27 -22.59,22.6 -53.83,36.59 -88.27,36.59 -34.44,0 -65.67,-13.99 -88.28,-36.59 -22.6,-22.59 -36.59,-53.83 -36.59,-88.27 0,-34.25 14.02,-65.47 36.69,-88.15 22.5,-22.7 53.73,-36.69 88.18,-36.69 34.43,0 65.67,13.99 88.27,36.59 22.58,22.78 36.59,53.99 36.59,88.25zm-114.41 10.45c2.63,-2.63 4.3,-6.37 4.3,-10.45 0,-4.22 -1.59,-7.94 -4.08,-10.43 -2.84,-2.63 -6.58,-4.3 -10.66,-4.3 -4.09,0 -7.83,1.67 -10.46,4.3 -2.71,2.49 -4.3,6.22 -4.3,10.43 0,4.08 1.67,7.82 4.3,10.45 2.63,2.63 6.37,4.3 10.46,4.3 4.08,0 7.82,-1.67 10.45,-4.3z"/>
   <path class="fil8" d="M1369.15 6816.76c0,38.54 -31.25,69.79 -69.82,69.79 -38.55,0 -69.8,-31.25 -69.8,-69.79 0,-38.55 31.25,-69.8 69.8,-69.8 38.57,0 69.82,31.25 69.82,69.8zm69.8 -3576.85c0,38.53 -31.25,69.78 -69.8,69.78 -38.57,0 -69.82,-31.25 -69.82,-69.78 0,-38.58 31.25,-69.8 69.82,-69.8 38.55,0 69.8,31.22 69.8,69.8zm-774.89 1280.67c0,38.55 -31.24,69.8 -69.78,69.8 -38.55,0 -69.8,-31.25 -69.8,-69.8 0,-38.53 31.25,-69.78 69.8,-69.78 38.54,0 69.78,31.25 69.78,69.78zm2368.1 -4021.29c0,38.54 -31.22,69.79 -69.79,69.79 -38.55,0 -69.8,-31.25 -69.8,-69.79 0,-38.57 31.25,-69.83 69.8,-69.83 38.57,0 69.79,31.26 69.79,69.83zm-2298.3 4714.56c0,38.55 -31.25,69.8 -69.8,69.8 -38.54,0 -69.78,-31.25 -69.78,-69.8 0,-38.53 31.24,-69.78 69.78,-69.78 38.55,0 69.8,31.25 69.8,69.78zm635.29 691.39c0,38.54 -31.25,69.8 -69.82,69.8 -38.55,0 -69.8,-31.26 -69.8,-69.8 0,-38.55 31.25,-69.8 69.8,-69.8 38.57,0 69.82,31.25 69.82,69.8zm379.36 -3803.65c0,38.57 -31.25,69.82 -69.78,69.82 -38.57,0 -69.83,-31.25 -69.83,-69.82 0,-38.55 31.26,-69.79 69.83,-69.79 38.53,0 69.78,31.24 69.78,69.79z"/>
   <path class="fil5" d="M8238.96 6746.1c20.08,-35.92 305.86,-534.15 557.11,-234.94 167.16,199.1 74.36,281.23 -35.03,315.13 86.07,80.1 149.42,194.05 -29.13,286.67 -255.53,132.59 -493.17,-299.59 -493.83,-300.79 -11.94,-21.33 -10.76,-46.45 0.89,-66.06zm455.93 -150.31c-110.98,-132.15 -268.88,96.34 -322.64,183.86 49.45,79.38 186.07,274.91 299.26,216.16 78.86,-40.92 -80.54,-135.33 -109.55,-151.81 -22.73,-10.46 -38.51,-33.43 -38.51,-60.06 0,-36.46 29.6,-66.06 66.06,-66.06 0.6,0 210.15,2.7 105.39,-122.09zm-1216.9 -4863.29c-40.81,-46.87 -534.38,-628.04 -57.82,-804.79 337.54,-125.23 376.84,61.51 358.66,219.75 140.14,-83.77 334.58,-144.89 371.77,128.2 51.04,374.79 -607.87,481.07 -609.75,481.37 -24.68,4.11 -48.45,-6.08 -62.87,-24.52zm-11.88 -680.94c-268.85,99.71 3.7,463.97 89.29,568.55 119.61,-24.74 492.97,-118.94 464.64,-326.93 -25.41,-186.49 -301.59,60.7 -302.37,61.38 -17.63,15.35 -42.89,20.84 -66.33,12.12 -34.05,-12.66 -51.37,-50.59 -38.7,-84.62 0.34,-0.91 123.57,-330.71 -146.53,-230.49zm657.53 2367.48c-20.78,-51.55 -301.12,-769.27 209.4,-779.8 359.76,-7.42 335.54,181.85 266.41,325.31 159.98,-32.87 363.47,-26.45 309.17,242.69 -74.96,371.3 -731.82,255.09 -733.68,254.78 -24.48,-4.08 -43.52,-21.17 -51.3,-42.99zm212 -648.19c-286.82,5.93 -148.82,439.6 -102.27,566.55 121.46,15.88 504.81,49.29 546.25,-155.95 37.42,-185.53 -303.99,-42.04 -304.93,-41.64 -21.98,8.92 -48.09,5.87 -67.6,-10.32 -27.93,-23.23 -31.76,-64.71 -8.53,-92.64 0.63,-0.75 225.52,-271.92 -62.92,-265.99zm163.26 3184.47c-6.31,-53.37 -60.16,-580.78 298.35,-493.13 240.65,58.81 219.05,173.38 155.27,261.52 110.75,14.47 220.25,68.15 135.62,239.13 -122.45,247.43 -549.81,49 -551.03,48.45 -22.84,-10.53 -36.77,-32.49 -38.21,-55.97zm267.4 -365.11c-153.77,-37.61 -147.79,217.72 -140.01,315.74 82.66,33.06 291.56,103.85 343.66,-1.43 37.32,-75.4 -153.97,-51.47 -168.41,-49.57 -23.45,3.56 -48.07,-5.75 -63.07,-26.19 -21.51,-29.34 -15.13,-70.61 14.2,-92.12 0.42,-0.31 156.29,-111.58 13.63,-146.43z"/>
   <path class="fil9" d="M8295.64 6779.93c0,0 252.02,-462.03 449.83,-226.45 197.81,235.59 -155.98,230.46 -155.98,230.46 0,0 310.46,167.61 112.21,270.44 -198.19,102.86 -406.06,-274.45 -406.06,-274.45zm-765.62 -5087.91c0,0 -492.19,-552.06 -86.88,-702.38 405.27,-150.38 231.15,315.39 231.15,315.39 0,0 368.67,-331.57 411.02,-20.62 42.34,310.95 -555.3,407.61 -555.3,407.61zm655.74 1704.99c0,0 -283.62,-683.02 148.57,-691.96 432.22,-8.92 114.8,373.86 114.8,373.86 0,0 457.07,-192.13 394.97,115.46 -62.1,307.61 -658.33,202.64 -658.33,202.64zm378.94 2554.42c0,0 -66.18,-494.49 217.06,-425.22 283.24,69.24 9.86,263.6 9.86,263.6 0,0 331.32,-45.85 237.42,143.88 -93.9,189.72 -464.33,17.75 -464.33,17.75z"/>
   <path class="fil2" d="M9280.61 4549.19c-7.31,33.66 -27.8,61.22 -54.8,78.47 -26.86,17.11 -60.31,24.06 -93.89,16.65 -33.58,-7.42 -61.04,-27.83 -78.21,-54.69 -16.07,-25.16 -23.11,-56.06 -17.89,-87.47 0.45,-4.48 1.41,-8.82 2.86,-12.93 8.48,-30.61 27.91,-55.65 53.06,-71.73 25.15,-16.02 56.02,-23.1 87.44,-17.87 3.53,0.33 7,1.01 10.32,2 31.79,8.12 57.82,28.01 74.34,53.91 17.09,26.76 24.03,60.09 16.77,93.66zm-113.74 -14.02c3.05,-1.95 5.44,-5.2 6.3,-9.18l0.21 -0.23c0.89,-4.01 0.03,-8.06 -2.03,-11.29 -1.95,-3.07 -5.18,-5.44 -9.13,-6.3l-0.26 -0.21c-4,-0.88 -8.09,-0.05 -11.28,2 -3.09,1.98 -5.52,5.2 -6.45,9.1l-0.05 0.29c-0.89,4.04 -0.03,8.09 2.03,11.32 2.03,3.19 5.35,5.64 9.39,6.52 4,0.89 8.06,0.03 11.28,-2.03zm91.08 -896.05c-8.32,31.16 -27.96,56.62 -53.37,72.85 -26.97,17.22 -60.36,24.16 -93.66,16.85 -33.65,-7.38 -61.2,-27.88 -78.45,-54.87 -17.17,-26.87 -24.06,-60.32 -16.65,-93.92 7.39,-33.53 27.68,-60.94 54.52,-78.08 26.87,-17.36 60.35,-24.3 93.82,-16.96l5.59 1.51c31.13,8.32 56.6,27.94 72.86,53.38 17.21,26.97 24.15,60.36 16.85,93.66l-1.52 5.59zm-112.3 -19.63c2.68,-1.72 4.84,-4.32 5.98,-7.54l0.31 -1.61c0.93,-4.29 0.18,-8.4 -1.82,-11.53 -1.71,-2.67 -4.31,-4.83 -7.54,-5.98l-1.61 -0.3c-4.19,-0.91 -8.24,-0.16 -11.31,1.82 -3.38,2 -5.83,5.33 -6.71,9.36 -0.89,4.03 -0.03,8.08 2.03,11.31 1.95,3.04 5.2,5.44 9.16,6.3 4.29,0.93 8.42,0.15 11.52,-1.82zm-695.32 2709.52c-0.41,4.5 -1.4,8.87 -2.83,12.98 -8.5,30.72 -27.9,55.76 -52.87,71.76l-4.24 2.47c-24.37,14.25 -53.68,20.37 -83.38,15.4 -4.48,-0.42 -8.82,-1.41 -12.92,-2.83 -30.67,-8.48 -55.74,-27.97 -71.79,-53.09 -17.21,-26.97 -24.16,-60.36 -16.85,-93.68 7.39,-33.63 27.89,-61.2 54.88,-78.45 26.84,-17.09 60.31,-24.06 93.92,-16.64 33.54,7.41 61.02,27.8 78.2,54.69 16.05,25.1 23.12,55.97 17.89,87.39zm-115.06 -7.75c3.22,-2.03 5.67,-5.2 6.6,-8.97l0.11 -0.45c0.89,-4 0.03,-8.06 -2.03,-11.28 -2.03,-3.18 -5.36,-5.65 -9.39,-6.53 -4.01,-0.89 -8.09,-0.03 -11.31,2.03 -3.05,1.96 -5.44,5.2 -6.3,9.16 -0.94,4.29 -0.18,8.42 1.82,11.54 1.95,3.07 5.12,5.46 8.97,6.4l0.47 0.1c3.44,0.75 6.9,0.26 9.84,-1.19l1.22 -0.81zm-411 -4257.65c-7.3,33.65 -27.8,61.2 -54.79,78.45 -26.84,17.14 -60.26,24.06 -93.9,16.65 -33.52,-7.39 -60.94,-27.73 -78.1,-54.52 -17.35,-26.9 -24.29,-60.37 -16.95,-93.82l1.4 -5.23c13.95,-54.54 53.64,-83.25 97.49,-90.43 16.36,-2.71 33.42,-2.08 49.7,1.51 16.33,3.59 32.1,10.22 45.86,19.61l3.87 2.92c35.45,26.04 57.5,69.31 45.43,124.87zm-113.73 -14.05c3.04,-1.95 5.44,-5.18 6.3,-9.16l0.21 -0.23c1.3,-5.93 -0.08,-10.27 -2.71,-12.75l-1.33 -0.88c-2.21,-1.51 -4.86,-2.63 -7.57,-3.23 -2.73,-0.59 -5.67,-0.7 -8.4,-0.26 -3.49,0.55 -6.9,3.31 -8.64,8.64l-0.37 1.87c-0.91,4.19 -0.15,8.24 1.82,11.31 2.04,3.38 5.36,5.83 9.39,6.71 4.01,0.89 8.06,0.03 11.29,-2.03zm705.31 3211.83c-8.3,31.05 -27.86,56.46 -53.21,72.72 -25.96,16.77 -58.13,23.8 -90.41,17.66 -3.45,-0.52 -6.83,-1.38 -10.06,-2.5 -30.74,-8.5 -55.79,-27.9 -71.78,-52.87l-2.39 -4.11c-14.36,-24.4 -20.47,-53.71 -15.5,-83.51 0.33,-3.54 1.01,-7 2,-10.33 8.12,-31.78 28.01,-57.82 53.91,-74.36 26.87,-17.17 60.32,-24.06 93.92,-16.65 33.58,7.42 61.02,27.78 78.21,54.67 17.22,26.98 24.16,60.37 16.85,93.67l-1.53 5.61zm-112.41 -19.66c2.81,-1.72 4.97,-4.35 6.12,-7.54l0.3 -1.61c0.94,-4.3 0.19,-8.4 -1.82,-11.53 -2.03,-3.17 -5.33,-5.61 -9.38,-6.5 -4.01,-0.88 -8.09,-0.02 -11.32,2.04 -3.04,1.95 -5.44,5.2 -6.3,9.15l-0.21 0.26c-0.75,3.44 -0.23,6.9 1.23,9.83l0.8 1.23c1.78,2.81 4.42,5.04 7.57,6.19l1.61 0.31c4.16,0.91 8.22,0.15 11.39,-1.82zm376.01 -3202.96c-7.31,33.63 -27.8,61.2 -54.8,78.42 -26.84,17.14 -60.26,24.06 -93.89,16.64 -33.57,-7.41 -61.04,-27.8 -78.2,-54.67 -17.22,-26.97 -24.16,-60.36 -16.85,-93.66 7.38,-33.65 27.88,-61.2 54.87,-78.42 26.76,-17.09 60.09,-24.03 93.63,-16.7 33.68,7.24 61.2,27.71 78.47,54.73 17.09,26.76 24.03,60.08 16.77,93.66zm-113.73 -14.07c3.07,-1.96 5.44,-5.18 6.29,-9.13l0.21 -0.23c0.89,-4.01 0.03,-8.06 -2.03,-11.28 -1.95,-3.05 -5.18,-5.44 -9.15,-6.3l-0.24 -0.21c-4,-0.89 -8.05,-0.03 -11.28,2.03 -3.07,1.95 -5.44,5.2 -6.3,9.13 -0.93,4.29 -0.15,8.42 1.82,11.52 2.03,3.18 5.36,5.62 9.39,6.5 4.01,0.89 8.06,0.03 11.29,-2.03z"/>
   <path class="fil8" d="M9226.94 4537.59c-8.31,37.66 -45.55,61.45 -83.19,53.15 -37.66,-8.31 -61.43,-45.55 -53.13,-83.21 8.31,-37.64 45.53,-61.44 83.19,-53.13 37.64,8.31 61.43,45.55 53.13,83.19zm-21.23 -915.66c-8.31,37.64 -45.55,61.42 -83.18,53.12 -37.66,-8.31 -61.44,-45.54 -53.13,-83.19 8.3,-37.63 45.53,-61.42 83.19,-53.12 37.63,8.3 61.42,45.54 53.12,83.18zm-810.17 2701.74c-8.31,37.66 -45.55,61.45 -83.22,53.14 -37.63,-8.3 -61.43,-45.55 -53.12,-83.21 8.31,-37.64 45.55,-61.43 83.19,-53.12 37.66,8.3 61.45,45.55 53.15,83.19zm-524.93 -4271.66c-8.31,37.66 -45.55,61.43 -83.19,53.12 -37.63,-8.29 -61.44,-45.51 -53.13,-83.18 19.77,-89.64 156.09,-59.59 136.32,30.06zm593.01 3192.17c-8.3,37.64 -45.55,61.43 -83.17,53.12 -37.67,-8.31 -61.47,-45.55 -53.16,-83.18 8.3,-37.64 45.55,-61.42 83.22,-53.12 37.63,8.3 61.41,45.54 53.12,83.17zm262.16 -3217.02c-8.3,37.63 -45.55,61.42 -83.19,53.12 -37.63,-8.3 -61.43,-45.55 -53.13,-83.18 8.31,-37.63 45.55,-61.42 83.19,-53.12 37.63,8.3 61.43,45.55 53.13,83.18z"/>
   <path class="fil3" d="M7253.15 4692.73c0,177.64 -175.82,321.66 -392.81,321.66 -216.92,0 -392.83,-144.01 -392.83,-321.66 0,-177.63 175.9,-321.7 392.83,-321.7 216.98,0 392.81,144.07 392.81,321.7zm-4082.1 0c0,177.64 -175.82,321.66 -392.82,321.66 -216.93,0 -392.83,-144.01 -392.83,-321.66 0,-177.63 175.9,-321.7 392.83,-321.7 216.99,0 392.82,144.07 392.82,321.7z"/>
   <path class="fil10" d="M4809.68 5018.08c-324.9,0 -529.29,-194.96 -591.26,-563.79l86.33 -14.51c54.65,325.71 224.53,490.82 504.93,490.82 322.65,0 425.78,-307.81 458.47,-491.25l86.1 15.37c-63.92,357.95 -262.3,563.36 -544.58,563.36zm-986.61 -902.04c0,439.57 -201.05,795.92 -449.05,795.92 -247.95,0 -448.99,-356.36 -448.99,-795.92 0,-439.56 201.04,-795.91 448.99,-795.91 248,0 449.05,356.36 449.05,795.91zm2890.46 0c0,439.57 -201.04,795.92 -449.05,795.92 -248.01,0 -449.05,-356.36 -449.05,-795.92 0,-439.56 201.04,-795.91 449.05,-795.91 248.02,0 449.05,356.36 449.05,795.91z"/>
  </g>
 </g>
</svg>