<?xml version="1.0" encoding="UTF-8"?><!DOCTYPE svg PUBLIC "-//W3C//DTD SVG 1.1//EN" "http://www.w3.org/Graphics/SVG/1.1/DTD/svg11.dtd"><!-- Creator: CorelDRAW 2019 (64 Bit) --><svg xmlns="http://www.w3.org/2000/svg" xmlns:xlink="http://www.w3.org/1999/xlink" xmlns:xodm="http://www.corel.com/coreldraw/odm/2003" xml:space="preserve" width="107.339mm" height="113.013mm" version="1.1" style="shape-rendering:geometricPrecision; text-rendering:geometricPrecision; image-rendering:optimizeQuality; fill-rule:evenodd; clip-rule:evenodd" viewBox="0 0 7685.08 8091.27">
 <defs>
  <style type="text/css">
   <![CDATA[
    .fil0 {fill:white}
    .fil10 {fill:#828282;fill-rule:nonzero}
    .fil12 {fill:#5e5e5e;fill-rule:nonzero}
    .fil11 {fill:#003049;fill-rule:nonzero}
    .fil7 {fill:#6f6f6f;fill-rule:nonzero}
    .fil2 {fill:#aaaaaa;fill-rule:nonzero}
    .fil1 {fill:#c6c6c6;fill-rule:nonzero}
    .fil6 {fill:#5e5e5e;fill-rule:nonzero}
    .fil5 {fill:#6f6f6f;fill-rule:nonzero}
    .fil3 {fill:#828282;fill-rule:nonzero}
    .fil4 {fill:#c6c6c6;fill-rule:nonzero}
    .fil9 {fill:#aaaaaa;fill-rule:nonzero}
    .fil8 {fill:white;fill-rule:nonzero}
   ]]>
  </style>
 </defs>
 <g id="Camada_x0020_1">
  <metadata id="CorelCorpID_0Corel-Layer"/>
  <g id="_1527075870528">
   <path class="fil0" d="M7061.01 1977.06c26.64,33.21 48.99,71.45 66.01,115.1 160.43,70.49 251.11,214.57 258.5,384.86 197.15,65.7 318.83,273.96 273.19,480.95 -25.76,116.85 -100.08,211.65 -197.06,267.85 161.46,84.15 254.71,270.48 213.84,455.81 -37.37,169.47 -176.83,292.53 -339.49,318.81 7.14,71.57 12.57,143.3 16.3,215.12 36.17,47.25 60.96,101.22 72.95,159.37 130.31,131.53 149.36,321.47 65.1,491.72 -40.16,81.13 -98.27,146.87 -172.88,193.04 -2.32,17.08 -4.75,34.13 -7.27,51.17 50.83,114.74 56.96,238.73 5.31,353.29 29.01,170.64 -49.32,326.08 -194.35,420.64 -37.92,108.95 -80.49,216.28 -127.76,321.51 -530.35,1180.32 -1724.78,1841.06 -2990.87,1882.6 -63.8,2.1 -127.63,2.91 -191.46,1.94 -9.05,0.04 -18.08,-0.17 -27.13,-0.32 -1327.61,-21.21 -2533.17,-640.08 -3092.13,-1884.25 -102.85,-228.94 -183.37,-467.74 -242.3,-711.67 -210.33,-43.07 -358.59,-200.85 -379.48,-430.97 -16.42,-180.81 43.15,-357.92 198.61,-453.3 15.72,-32.02 35.35,-61.86 58.68,-88.73 -0.21,-13.56 -0.35,-27.13 -0.44,-40.7 -111.65,-75.78 -181.2,-203.02 -181.2,-341.91 0,-89.27 28.75,-173.89 79.12,-243.08 -83.24,-76.3 -134.29,-185.71 -134.29,-304.81 0,-193.93 133.89,-356.79 314.21,-401.15 -99.22,-19.37 -192.87,-62.61 -266.64,-134.84 -99.65,-97.57 -142.55,-229.92 -137.71,-367.62 6.57,-186.5 90.13,-358.56 261.57,-433.28 102.04,-160.63 287.85,-220.72 477.17,-171.37 82.39,21.48 154.19,60.9 212.49,117.1 3.88,-1.69 7.79,-3.32 11.73,-4.88 44.56,-65.63 91.67,-129.55 141.28,-191.46 -96.58,-76.42 -157.08,-194.53 -157.08,-324.23 0,-184.92 121.71,-341.58 289.34,-394.21 -10.8,-10.47 -21.3,-21.04 -31.47,-31.69 -251.13,-262.94 -294.15,-628.26 12.35,-869.78 171.19,-134.91 392.9,-194.71 587.22,-75.18 57.56,-13.42 115.79,-15.8 172.2,-6.62 48.59,-174.09 208.42,-301.92 397.93,-301.92 179.78,0 332.84,115.04 389.57,275.47 345.4,-99.32 724.14,-136.15 1077.96,-136.15 411.39,0 861.58,50.4 1249.47,191.83 166.59,60.75 344.3,149.11 479.4,274.21 59.83,-62.37 135.45,-108.85 220.26,-140.32 205.76,-76.34 432.76,-65.93 581.81,108.68 220.63,17.74 373.81,183.7 404.84,411.56 10.37,76.19 4.15,154.17 -18.23,227.55 64.71,-19.26 134.83,-22.95 204.81,-7.52 221.07,48.74 363.21,271.26 314.46,492.34 -27.63,125.29 -111.07,225.22 -218.42,279.42z"/>
   <path class="fil1" d="M6699.63 6101.81c-478.81,1065.51 -1563.26,1650.98 -2703.03,1688.36 -60.56,2 -120.88,2.73 -180.94,1.74 -7.5,0.26 -14.72,0 -22.21,-0.24 -1192.86,-18.94 -2290.5,-557.57 -2799.22,-1689.87 -444.88,-990.24 -443.39,-2201.56 -29.91,-3193.03 181.45,-435.2 470.31,-834.22 851.91,-1114.86 154.71,-113.61 337.3,-167.45 433.3,-325.31 16.52,48.82 49.47,95.77 96.74,140.01 28.65,27.17 63.04,53.37 102.19,78.27 18.67,11.97 38.38,23.42 59.32,34.9 36.38,19.94 76.26,38.88 118.86,57.08 32.43,13.72 66.56,26.91 102.22,39.38 68.52,24.16 142.56,46.1 221.8,65.54 33.16,7.98 67.31,15.72 102.21,22.93 81.98,16.95 168.24,31.42 258.45,43.12 33.4,4.25 67.55,8.23 102.19,11.48 78.25,8.23 159.01,13.95 241.53,17.43 33.89,1.5 67.79,2.74 102.18,3.24 29.65,0.74 59.56,1.01 89.73,1.01 52.82,0 105.17,-1.01 157.03,-2.75 34.37,-1.25 68.26,-2.74 102.18,-4.98 90.48,-5.23 178.45,-13.22 263.19,-23.93 34.64,-4.25 68.79,-8.99 102.19,-14.21 86.47,-13.22 168.97,-29.15 246.73,-47.35 35.16,-8.49 69.03,-16.95 102.19,-26.17 70.53,-19.7 136.34,-41.12 196.9,-64.81 35.9,-13.71 70.04,-28.17 102.18,-43.36 23.19,-10.98 45.37,-22.19 66.56,-33.66 42.62,-23.17 80.77,-47.62 114.16,-73.02 42.13,-32.15 76.5,-66.05 102.19,-101.2 18.72,-25.76 32.83,-52.23 41.94,-79.25l0.04 0.08c95.72,158.03 278.42,211.86 433.17,325.53 381.61,280.65 670.49,679.66 851.94,1114.86 413.49,991.47 415,2202.79 -29.91,3193.03z"/>
   <path class="fil2" d="M2308.71 1243.73l0 0.01c11.26,13.36 23.71,26.54 37.56,39.38 2.25,2.1 4.55,4.2 6.86,6.29 -16.47,-14.93 -31.3,-30.17 -44.42,-45.69zm-59.18 224.88c-96,157.86 -278.59,211.7 -433.3,325.31 -381.6,280.65 -670.46,679.69 -851.91,1114.86 -413.49,991.47 -414.97,2202.79 29.91,3193.03 508.72,1132.3 1606.36,1670.92 2799.24,1689.87 5.29,0.16 10.45,0.33 15.64,0.33 2.18,0 4.35,-0.02 6.54,-0.09 17.91,0.31 35.85,0.45 53.83,0.45 42.24,0 84.63,-0.79 127.11,-2.19 1139.77,-37.38 2224.22,-622.86 2703.03,-1688.36 444.9,-990.24 443.39,-2201.56 29.91,-3193.03 -181.45,-435.18 -470.33,-834.22 -851.91,-1114.86 -154.78,-113.67 -337.48,-167.5 -433.2,-325.53l-0.04 -0.08c-9.11,27.02 -23.23,53.49 -41.94,79.25 -25.69,35.15 -60.06,69.05 -102.19,101.2 -33.39,25.4 -71.54,49.85 -114.16,73.02 -5.06,2.73 -10.18,5.47 -15.36,8.18 109.42,144.36 248.38,223.94 362.92,289.52 45.63,26.14 88.71,50.83 122.44,75.6 310.54,228.38 562.38,559.49 728.35,957.6 378.66,907.94 368.74,2017.6 -25.86,2895.89 -196.86,438.13 -527.13,805.54 -955.07,1062.41 -152.94,91.83 -316.41,168.84 -487.73,230.35 -279.44,134.63 -655.35,217.13 -1068.87,217.13 -395.53,0 -756.66,-75.48 -1031.86,-199.87 -675.96,-223.82 -1194.82,-675.65 -1479.8,-1309.99 -394.63,-878.32 -404.53,-1987.98 -25.89,-2895.94 166,-398.09 417.86,-729.19 728.14,-957.39 33.99,-24.97 77.12,-49.66 122.77,-75.83 114.52,-65.58 253.46,-145.15 362.92,-289.37 -5.21,-2.75 -10.35,-5.51 -15.43,-8.29 -20.94,-11.48 -40.65,-22.93 -59.32,-34.9 -39.15,-24.9 -73.54,-51.1 -102.19,-78.27 -47.27,-44.24 -80.22,-91.19 -96.74,-140.01zm3135.83 -225.12l0 -0.01c-14.2,16.85 -30.43,33.35 -48.58,49.49 18.14,-16.12 34.39,-32.6 48.58,-49.48zm-89.8 83.08c-26.81,20.13 -56.68,39.61 -89.41,58.37 32.73,-18.74 62.57,-38.2 89.41,-58.37zm-2691.5 116.79c-76.18,-33.7 -142.23,-70.54 -196.46,-109.93 12.94,9.44 26.55,18.76 40.85,27.97 45.51,28.95 97.51,56.32 155.61,81.96z"/>
   <path class="fil3" d="M5456.52 1070.53l0 325.5c0,52.33 -18.94,103.18 -54.07,151.53 -25.69,35.16 -60.06,69.05 -102.19,101.21 -33.39,25.4 -71.53,49.85 -114.16,73.02 -21.19,11.47 -43.37,22.68 -66.55,33.66 -32.15,15.19 -66.28,29.65 -102.19,43.36 -60.56,23.68 -126.37,45.11 -196.9,64.81 -33.16,9.21 -67.02,17.68 -102.18,26.17 -77.77,18.2 -160.27,34.13 -246.74,47.35 -33.39,5.23 -67.55,9.97 -102.19,14.22 -84.75,10.71 -172.71,18.7 -263.19,23.93 -33.92,2.23 -67.82,3.74 -102.19,4.98 -51.86,1.74 -104.22,2.74 -157.02,2.74 -30.17,0 -60.08,-0.26 -89.73,-1 -34.39,-0.5 -68.3,-1.74 -102.19,-3.24 -82.51,-3.48 -163.27,-9.21 -241.54,-17.43 -34.64,-3.25 -68.79,-7.23 -102.18,-11.48 -90.21,-11.71 -176.47,-26.17 -258.45,-43.12 -34.9,-7.21 -69.05,-14.96 -102.2,-22.93 -79.24,-19.44 -153.28,-41.38 -221.81,-65.55 -35.66,-12.47 -69.79,-25.67 -102.21,-39.38 -42.6,-18.2 -82.49,-37.14 -118.86,-57.08 -20.93,-11.48 -40.64,-22.93 -59.32,-34.9 -39.14,-24.91 -73.54,-51.1 -102.18,-78.27 -70.29,-65.79 -108.94,-137.58 -108.94,-212.6l0 -325.5c0,56.31 21.94,110.91 62.8,162.74 13.45,16.94 28.67,33.66 46.14,49.85 28.88,26.91 63.04,53.07 102.18,78.26 51.33,32.65 110.9,63.31 178.18,91.71 32.42,13.71 66.55,26.93 102.21,39.38 68.53,24.17 142.57,46.11 221.81,65.31 33.15,8.23 67.31,15.94 102.2,23.19 81.98,16.93 168.24,31.39 258.45,42.86 33.65,4.48 67.54,8.46 102.18,11.71 78.26,8.2 159.03,13.95 241.54,17.43 33.63,1.5 67.79,2.74 102.19,3.24 29.65,0.76 59.56,1 89.73,1 53.07,0 105.43,-1 157.02,-2.74 34.37,-1.24 68.53,-2.75 102.19,-4.98 90.48,-5.25 178.44,-13.22 263.19,-23.93 34.64,-4.25 68.8,-8.97 102.19,-14.46 86.47,-12.98 168.97,-28.91 246.74,-47.38 35.16,-7.96 69.03,-16.7 102.18,-25.9 70.53,-19.7 136.34,-41.12 196.9,-64.57 35.91,-13.95 70.04,-28.4 102.19,-43.59 70.29,-32.92 130.88,-68.55 180.71,-106.68 35.88,-27.43 66.31,-56.07 90.24,-85.75l3.22 -3.98c40.88,-51.84 62.8,-106.43 62.8,-162.74z"/>
   <path class="fil4" d="M5456.52 1070.53c0,56.31 -21.92,110.91 -62.8,162.74 -193.14,244.75 -812.53,423.96 -1546.78,423.96 -734.29,0 -1353.63,-179.21 -1546.82,-423.96 -40.86,-51.84 -62.8,-106.43 -62.8,-162.74 0,-324.28 720.56,-586.98 1609.62,-586.98 889.02,0 1609.57,262.7 1609.57,586.98z"/>
   <path class="fil5" d="M5270.52 1042.37c0,41.25 -19.2,81.22 -55.03,119.19 -169.33,179.26 -712.29,310.5 -1355.95,310.5 -643.67,0 -1186.61,-131.24 -1355.94,-310.5 -35.83,-37.97 -55.06,-77.95 -55.06,-119.19 0,-237.48 631.66,-429.86 1411,-429.86 779.35,0 1410.98,192.38 1410.98,429.86z"/>
   <path class="fil6" d="M5270.59 1042.35c0,41.36 -19.17,81.24 -55.05,119.15 -38.66,40.86 -96.73,79.24 -170.98,114.13 49.59,-27.91 89.47,-57.82 118.13,-89.21 34.65,-37.9 53.33,-77.79 53.33,-119.15 0,-237.52 -612.88,-429.95 -1369.07,-429.95 -756.2,0 -1369.07,192.43 -1369.07,429.95 0,41.36 18.67,81.25 53.3,119.15l5.25 5.48c-12.21,-9.97 -23.18,-20.2 -32.88,-30.41 -35.64,-37.91 -55.08,-77.79 -55.08,-119.15 0,-237.53 631.81,-429.96 1411.18,-429.96 779.14,0 1410.95,192.43 1410.95,429.96zm-1332.81 711.84c0,0 -7.68,10.07 -13.17,25.12 -6.08,15.05 -9.75,35.13 -9.83,55.21 0.03,20.08 3.65,40.17 9.79,55.21 5.46,15.06 13.21,25.1 13.21,25.1 0,0 7.73,-10.04 13.22,-25.1 6.12,-15.05 9.72,-35.13 9.77,-55.21 -0.09,-20.08 -3.74,-40.17 -9.85,-55.21 -5.46,-15.06 -13.15,-25.12 -13.15,-25.12zm184.84 -13.24c0,0 -7.68,12.31 -13.15,30.77 -6.08,18.46 -9.76,43.06 -9.85,67.67 0.05,24.61 3.68,49.21 9.81,67.67 5.46,18.46 13.19,30.76 13.19,30.76 0,0 7.73,-12.31 13.21,-30.76 6.16,-18.46 9.76,-43.06 9.79,-67.67 -0.07,-24.61 -3.72,-49.22 -9.83,-67.67 -5.48,-18.46 -13.17,-30.77 -13.17,-30.77zm157.72 -33.27c0,0 -7.73,12.94 -13.17,32.35 -6.1,19.44 -9.75,45.31 -9.82,71.22 0.02,25.9 3.62,51.81 9.78,71.22 5.44,19.42 13.22,32.38 13.22,32.38 0,0 7.73,-12.95 13.17,-32.38 6.15,-19.41 9.75,-45.31 9.77,-71.22 -0.04,-25.91 -3.72,-51.79 -9.82,-71.22 -5.43,-19.4 -13.12,-32.35 -13.12,-32.35zm197.83 0c0,0 -7.68,10.42 -13.12,26.07 -6.11,15.65 -9.79,36.52 -9.85,57.39 0.02,20.87 3.65,41.72 9.77,57.37 5.47,15.67 13.2,26.09 13.2,26.09 0,0 7.75,-10.42 13.21,-26.09 6.14,-15.65 9.76,-36.5 9.79,-57.37 -0.08,-20.87 -3.72,-41.74 -9.85,-57.39 -5.43,-15.64 -13.15,-26.07 -13.15,-26.07zm201.22 -45.13c0,0 -7.68,11.46 -13.14,28.65 -6.11,17.18 -9.76,40.1 -9.85,63 0.02,22.93 3.64,45.84 9.78,63.02 5.48,17.2 13.21,28.65 13.21,28.65 0,0 7.73,-11.45 13.22,-28.65 6.16,-17.18 9.76,-40.09 9.78,-63.02 -0.06,-22.9 -3.72,-45.82 -9.85,-63 -5.46,-17.19 -13.15,-28.65 -13.15,-28.65zm172.65 -47.08c0,0 -7.68,11.51 -13.14,28.81 -6.1,17.3 -9.78,40.34 -9.85,63.41 0.02,23.04 3.64,46.09 9.81,63.38 5.43,17.27 13.18,28.82 13.18,28.82 0,0 7.75,-11.55 13.2,-28.82 6.15,-17.29 9.76,-40.34 9.78,-63.38 -0.07,-23.07 -3.72,-46.11 -9.83,-63.41 -5.43,-17.3 -13.15,-28.81 -13.15,-28.81zm212.53 -114.23c0,0 -7.68,14.97 -13.12,37.45 -6.13,22.47 -9.78,52.44 -9.85,82.41 0.02,29.96 3.62,59.92 9.78,82.41 5.46,22.47 13.19,37.44 13.19,37.44 0,0 7.75,-14.98 13.22,-37.44 6.13,-22.5 9.75,-52.46 9.78,-82.41 -0.09,-29.96 -3.74,-59.94 -9.85,-82.41 -5.44,-22.48 -13.15,-37.45 -13.15,-37.45zm176.4 -89.09c0,0 -7.68,14.03 -13.15,35.04 -6.11,21.01 -9.73,49.04 -9.81,77.07 0.05,28.01 3.67,56.03 9.84,77.05 5.48,20.98 13.21,34.99 13.21,34.99 0,0 7.73,-14 13.19,-35.02 6.13,-21.01 9.73,-49.04 9.76,-77.04 -0.09,-28.02 -3.77,-56.03 -9.88,-77.04 -5.48,-21.01 -13.16,-35.04 -13.16,-35.04zm-1489.24 336.73c0,0 7.68,10.04 13.14,25.1 6.11,15.07 9.76,35.13 9.83,55.21 -0.02,20.09 -3.65,40.17 -9.78,55.25 -5.46,15.05 -13.19,25.09 -13.19,25.09 0,0 -7.75,-10.04 -13.22,-25.09 -6.13,-15.08 -9.76,-35.16 -9.78,-55.25 0.07,-20.08 3.75,-40.14 9.85,-55.21 5.44,-15.06 13.15,-25.1 13.15,-25.1zm-184.86 -13.24c0,0 7.7,12.31 13.15,30.75 6.1,18.46 9.77,43.08 9.85,67.69 -0.02,24.61 -3.65,49.21 -9.78,67.67 -5.46,18.46 -13.22,30.77 -13.22,30.77 0,0 -7.73,-12.31 -13.19,-30.77 -6.15,-18.46 -9.75,-43.06 -9.78,-67.67 0.05,-24.61 3.72,-49.24 9.84,-67.69 5.45,-18.44 13.13,-30.75 13.13,-30.75zm-157.66 -33.29c0,0 7.68,12.94 13.12,32.36 6.14,19.45 9.78,45.33 9.85,71.23 -0.02,25.9 -3.62,51.81 -9.77,71.22 -5.46,19.41 -13.2,32.37 -13.2,32.37 0,0 -7.75,-12.96 -13.22,-32.37 -6.13,-19.42 -9.76,-45.32 -9.78,-71.22 0.08,-25.9 3.72,-51.79 9.83,-71.23 5.46,-19.42 13.17,-32.36 13.17,-32.36zm-197.88 0c0,0 7.68,10.45 13.15,26.09 6.1,15.64 9.77,36.52 9.85,57.36 -0.02,20.88 -3.65,41.75 -9.78,57.39 -5.49,15.65 -13.22,26.08 -13.22,26.08 0,0 -7.75,-10.42 -13.22,-26.08 -6.13,-15.64 -9.75,-36.51 -9.78,-57.39 0.1,-20.84 3.74,-41.72 9.85,-57.36 5.46,-15.64 13.15,-26.09 13.15,-26.09zm-201.21 -45.11c0,0 7.68,11.44 13.12,28.62 6.13,17.2 9.78,40.12 9.85,63.02 -0.02,22.93 -3.63,45.82 -9.78,63.03 -5.46,17.17 -13.2,28.62 -13.2,28.62 0,0 -7.75,-11.45 -13.21,-28.62 -6.14,-17.2 -9.76,-40.1 -9.78,-63.03 0.07,-22.9 3.72,-45.81 9.83,-63.02 5.46,-17.18 13.16,-28.62 13.16,-28.62zm-172.65 -47.09c0,0 7.68,11.52 13.15,28.81 6.11,17.3 9.76,40.34 9.85,63.38 -0.04,23.06 -3.65,46.1 -9.77,63.4 -5.49,17.27 -13.22,28.81 -13.22,28.81 0,0 -7.75,-11.54 -13.21,-28.81 -6.14,-17.3 -9.76,-40.34 -9.78,-63.4 0.07,-23.05 3.74,-46.09 9.85,-63.38 5.46,-17.29 13.14,-28.81 13.14,-28.81zm-212.55 -114.24c0,0 7.71,14.99 13.15,37.45 6.11,22.47 9.79,52.45 9.85,82.41 -0.02,29.96 -3.65,59.92 -9.77,82.41 -5.49,22.47 -13.22,37.44 -13.22,37.44 0,0 -7.73,-14.98 -13.18,-37.44 -6.14,-22.5 -9.76,-52.46 -9.79,-82.41 0.08,-29.96 3.72,-59.94 9.83,-82.41 5.46,-22.47 13.14,-37.45 13.14,-37.45zm-176.36 -89.09c0,0 7.68,14.03 13.12,35.04 6.11,21.01 9.76,49.04 9.83,77.04 -0.05,28.03 -3.68,56.05 -9.83,77.05 -5.48,21.01 -13.21,35.02 -13.21,35.02 0,0 -7.73,-14 -13.2,-35.02 -6.14,-21.02 -9.76,-49.04 -9.76,-77.07 0.09,-28 3.77,-56.03 9.88,-77.02 5.46,-21.01 13.17,-35.04 13.17,-35.04zm2937.99 -124.37c0,0 -7.73,12.43 -13.14,31.05 -6.14,18.61 -9.78,43.47 -9.85,68.3 0.02,24.84 3.62,49.66 9.78,68.29 5.46,18.64 13.21,31.04 13.21,31.04 0,0 7.73,-12.4 13.2,-31.04 6.13,-18.63 9.73,-43.45 9.78,-68.29 -0.07,-24.83 -3.75,-49.69 -9.85,-68.3 -5.44,-18.62 -13.12,-31.05 -13.12,-31.05z"/>
   <path class="fil7" d="M5409.04 6656.71c0,442.8 -699.39,801.75 -1562.12,801.75 -862.73,0 -1562.11,-358.95 -1562.11,-801.75 0,-126.32 57,-245.77 158.38,-352.05 4.87,6.78 9.78,13.52 14.75,20.22 163.23,218.36 360.12,372 577.04,493.67l0 0.28c243.96,137.38 513.15,235.54 787.88,342.67l0.2 0.07 -0.2 0.08c1.92,0.68 3.9,1.39 5.88,2.15l0 0.01 0.24 0.09 0.01 0.01 0.24 0.09 0 0.01 0.49 0.19 0.01 0 0.23 0.09 0.01 0 0.24 0.09 0.01 0 0.23 0.1 0.01 0 1.46 0.57 0.02 0.01 1.2 0.47 0.04 0.01 0.21 0.08 0.04 0.01 0.21 0.08 0.04 0.02 0.21 0.09 0.04 0.01 0.2 0.08 0.04 0.02 0.2 0.07 0.04 0.02 4.14 1.68 4.95 1.81 0.05 0.02 0.39 0.15 0.04 0.02 0.39 0.14 0.06 0.01 0.39 0.15 0.04 0.01c7.2,2.76 13.57,5.21 19.21,7.46 5.02,-2.17 11.16,-4.5 18.09,-7.14l0.02 -0.01 0.41 -0.15 0.03 -0.01 0.4 -0.16 0.03 -0.01 0.42 -0.15 0.03 -0.01 5.87 -2.15c83.87,-31.5 167.92,-62.95 251.32,-95.49l0.03 -0.01 13.12 -5.13 0.04 -0.01 13.12 -5.15 0.04 -0.01 13.1 -5.17 0.04 -0.01 2.47 -0.98c182.96,-72.42 362.1,-151.09 528.89,-248.22 148.93,-86.82 287.75,-188.46 410.6,-313.63 24.26,-24.79 47.85,-50.45 70.72,-77.02l0.13 -0.15 0.59 -0.67 2.46 -2.88 2.47 -2.9 0.11 -0.13 4.1 -4.83 0.72 -0.84 2.45 -2.91 0.17 -0.2 4.72 -5.65 2.43 -2.94c7.3,-8.81 14.53,-17.73 21.68,-26.76l2.38 -3.01 2.38 -3.01 2.37 -3.03 2.37 -3.04 1.48 -1.9 0.87 -1.14c7.07,-9.14 14.08,-18.39 21.02,-27.73 90.69,101.57 141.3,214.54 141.3,333.58z"/>
   <path class="fil6" d="M5431.93 6046.68c-6.89,14.87 -14.05,29.67 -21.44,44.4 -37.73,75.24 -81.87,147.83 -131.25,216.37 -48.78,67.33 -101.05,129.2 -157.12,186.43 -122.84,125.17 -261.66,226.81 -410.6,313.63 -255.3,148.69 -539.6,254.11 -822.16,360.11 -9.89,3.79 -18.59,6.98 -25.29,9.87 -7.23,-2.89 -15.68,-6.09 -25.52,-9.87 -5.26,-2.03 -10.48,-4.08 -15.7,-6.12 -274.73,-107.13 -543.92,-205.29 -787.88,-342.67l0 -0.28c-216.91,-121.67 -413.8,-275.31 -577.04,-493.67 -16.83,-22.68 -33.08,-45.92 -48.76,-69.41 -47.32,-70.57 -88.83,-144.32 -123.67,-220.35 348.03,10.65 901.34,-112.94 831.51,-309.95 -62.15,-176.56 -693.2,-310.17 -952.81,-358.35 -11.81,-2.13 -22.63,-4.02 -32.67,-5.7l0.02 -0.41c8.12,-172.18 56.03,-343.52 151.58,-504.72 261.36,-439.65 870.04,-500.38 1279.52,-234.63 74.35,48.5 144.33,109.76 195.72,182.96l0 0.26c21.51,30.21 39.49,62.45 53.43,96.71 2.62,-6.39 5.23,-12.76 8.15,-19.17 49.35,-108.63 141.69,-195.75 241.01,-260.76 166.98,-108.33 367.05,-162.35 563.39,-158.56l0.87 0c12.21,0.26 24.1,0.87 36.31,1.42 2.89,0 5.81,0.3 8.69,0.58 7.87,0.59 15.41,1.17 23.24,2.03 8.72,0.61 17.43,1.47 26.15,2.63 10.45,1.14 20.62,2.61 31.07,4.03 16.81,2.33 33.38,5.26 49.66,9.04 8.97,1.72 18.29,3.47 27.01,5.8l2.04 0.57c11,2.33 21.75,5.23 32.51,8.14 38.05,10.75 75.2,23.53 111.5,39.49 9.89,4.06 19.74,8.69 29.63,13.34 9.87,4.67 19.77,9.62 29.35,14.84 9.88,4.93 19.47,10.45 29.02,15.99 11.89,6.67 23.52,13.91 34.85,21.45 9.59,6.11 19.18,12.51 28.47,19.45 11.03,7.59 21.78,15.7 32.23,24.13l1.17 0.89c8.99,7.25 17.73,14.48 26.13,22.07 11.93,10.45 23.82,21.18 35.16,32.51l1.13 0.87c27.88,21.78 54.62,45.88 79.88,71.73 8.42,8.69 16.56,17.43 24.69,26.43 32.23,36.29 61.59,76.07 87.71,119.96 39.19,65.92 70.26,134.15 93.49,203.27 7.87,23.23 14.84,46.47 20.9,69.7 2.92,11.62 5.81,23.51 8.74,35.41 5.53,23.54 9.86,47.05 13.64,70.57 3.33,20.76 5.98,41.72 8.15,62.74 -8.74,1.48 -18.06,3.12 -28.11,4.93 -259.61,48.18 -890.67,181.79 -952.81,358.35 -70.01,197.49 486.14,321.2 834.02,309.89l21.07 11.62z"/>
   <path class="fil5" d="M3425.08 4943.46c-20.02,0 -40.14,-6.56 -56.93,-20.09 -62.06,-50.12 -135.76,-83.14 -218.97,-98.17 -49.32,-8.93 -82.03,-56.09 -73.13,-105.34 8.9,-49.3 55.98,-82.11 105.33,-73.11 111.93,20.2 215.89,67.06 300.65,135.51 38.99,31.44 45.08,88.52 13.62,127.51 -17.9,22.18 -44.17,33.69 -70.58,33.69z"/>
   <path class="fil5" d="M2398.23 5331.27c-5.58,0 -11.23,-0.53 -16.92,-1.58 -49.2,-9.29 -81.57,-56.7 -72.3,-105.95 57.03,-302.41 300.94,-529.9 621.39,-579.47 49.49,-7.64 95.83,26.21 103.49,75.71 7.65,49.52 -26.25,95.85 -75.73,103.49 -184.93,28.6 -419.19,159.41 -470.94,433.9 -8.23,43.55 -46.29,73.89 -89,73.89z"/>
   <path class="fil3" d="M5279.1 6307.5c-155.66,216.12 -350.91,373.57 -567.63,499.91 -255.12,148.68 -539.52,254.19 -822.1,360.3 -10,3.61 -18.43,6.94 -25.37,9.64 -7.28,-2.7 -15.42,-6.04 -25.43,-9.64 -5.12,-2.11 -10.56,-4.25 -15.7,-6.06 280.78,-105.48 563.1,-210.36 816.37,-358.17 216.7,-126.35 411.95,-283.81 567.61,-499.9 60.53,-84.1 113.09,-174.06 156.02,-267.83 16.37,0.04 32.4,-0.19 48,-0.7l21.07 11.63c-42.33,91.24 -93.8,178.82 -152.83,260.82zm286.96 -888.61c0.06,-19.4 -0.35,-38.79 -1.27,-58.18l-7.03 1.17c-15.35,-151.73 -61.72,-301.33 -145.08,-441.66 -51.97,-87.38 -117.56,-159.89 -192.24,-218.25l-0.89 -0.89c-157.78,-156.25 -373.86,-233.96 -595.11,-238.18 195.24,18.14 382.34,95.22 522.86,234.23l0.95 0.89c74.62,58.37 140.2,130.88 192.24,218.25 86.44,145.55 133.11,301.08 146.64,458.59 -280.01,53.88 -851.18,182.76 -910.26,350.31 -16.83,47.48 2.6,90.68 46.57,128.78 -8.94,-22.36 -10.06,-45.99 -1.68,-70.8 62.29,-184.37 720.16,-322.31 944.33,-364.26zm-3438.25 0c-0.06,-19.4 0.35,-38.79 1.27,-58.18 10.73,1.78 22.35,3.8 35.13,6.11 259.61,48.18 890.66,181.79 952.81,358.35 16.83,47.48 -2.6,90.68 -46.57,128.78 8.94,-22.36 10.05,-45.99 1.68,-70.8 -62.28,-184.37 -720.15,-322.31 -944.32,-364.26z"/>
   <path class="fil8" d="M2484.24 5981.61c0,0 283.12,0 319.45,-87.13 36.29,-87.13 -500.96,58.09 -319.45,87.13z"/>
   <path class="fil8" d="M2914.69 5840.7c0,27.71 -22.46,50.17 -50.17,50.17 -27.74,0 -50.22,-22.46 -50.22,-50.17 0,-27.71 22.48,-50.19 50.22,-50.19 27.71,0 50.17,22.48 50.17,50.19z"/>
   <path class="fil8" d="M5209.61 5981.61c0,0 -283.11,0 -319.44,-87.13 -36.29,-87.13 500.96,58.09 319.44,87.13z"/>
   <path class="fil8" d="M4779.17 5840.7c0,27.71 22.46,50.17 50.17,50.17 27.74,0 50.22,-22.46 50.22,-50.17 0,-27.71 -22.49,-50.19 -50.22,-50.19 -27.71,0 -50.17,22.48 -50.17,50.19z"/>
   <path class="fil5" d="M1628.97 1209.21c-33.76,-20.18 -564.08,-344.02 -242.05,-597.76 225.9,-178.02 301.48,-45.76 326.38,78.83 85.92,-97.91 218.53,-191.76 313.64,6.39 130.8,272.45 -343.43,514.3 -344.76,514.98 -17.46,9.19 -37.75,7.6 -53.22,-2.45zm-176.94 -514.97c-179.36,141.32 116.45,351.26 207.34,409.97 85.22,-48.48 345.14,-211.64 272.82,-362.24 -65.02,-135.51 -214.24,120.05 -214.65,120.77 -9.53,15.86 -27.16,26.22 -46.96,25.54 -29,-1.02 -51.7,-25.37 -50.68,-54.38 0.02,-0.77 12.67,-281.96 -167.87,-139.66zm-721 2170.53c-25.56,8.73 -467.19,155.59 -456.17,-158.08 7.31,-207.64 106.44,-206.41 189.41,-167.88 -8.14,-93.57 15.14,-195.14 169.97,-154.75 221.92,57.82 132.23,441.72 131.98,442.8 -4.42,18.58 -18.23,32.49 -35.19,37.91zm-351.11 -154.38c-4.85,137.77 211.17,86.7 289.87,63.59 13.18,-73 37.24,-262.32 -61.91,-288.15 -76.16,-19.85 -15.36,151.68 -15.2,152.16 6.02,17.46 2.68,37.58 -10.5,52.32 -19.33,21.61 -52.55,23.44 -74.16,4.11 -0.36,-0.31 -123.53,-114.19 -128.1,15.97zm1043.51 1317.7c-1.89,-0.06 -665.26,-51.28 -481.18,-431.73 125.31,-259.02 251.21,-173.1 328.15,-71.94 34.65,-125.69 113.03,-267.8 284.74,-131.64 236.66,187.68 -84.06,612.96 -84.98,614.18 -11.25,15.2 -29.17,22.55 -46.73,21.14zm-386.43 -386.02c-99.5,205.69 258.75,264.98 365.98,277.96 55.39,-80.76 217.69,-340.94 86.64,-444.88 -114.35,-90.68 -138.4,181.87 -139.88,200.6 -1.02,19.25 -12.57,37.22 -31.39,45.51 -26.61,11.71 -57.71,-0.37 -69.43,-26.99 -0.31,-0.7 -111.88,-258.95 -211.91,-52.19zm-240.46 1522.17c-11.13,5.51 -424.67,208.8 -452.39,-96.37 -17.79,-196.28 73.82,-209.96 156.77,-184.86 -18,-87.24 -6.04,-183.94 145.83,-164.22 219.26,28.48 179.4,401.6 179.31,402.66 -1.66,19.14 -13.39,34.98 -29.52,42.79zm-347.75 -105.84c11.4,125.54 202.61,55.04 274.69,23.81 3.38,-71.7 2.11,-247.22 -90.13,-259.2 -67.72,-8.56 6.79,141.13 6.99,141.55 7.89,16.59 6.93,36.84 -4.32,52.95 -16.61,23.77 -49.37,29.58 -73.14,12.97 -0.35,-0.25 -124.71,-89.21 -114.1,27.92z"/>
   <path class="fil9" d="M1657.67 1165.1c0,0 -509.21,-298.69 -238.21,-512.26 271.03,-213.58 252.96,182.93 252.96,182.93 0,0 198.74,-342.27 307.15,-116.44 108.42,225.83 -321.9,445.78 -321.9,445.78zm-942.55 1649.62c0,0 -396.37,139.21 -387.74,-106.17 8.63,-245.41 215.65,-53.27 215.65,-53.27 0,0 -94.48,-265.31 78.01,-220.34 172.5,44.96 94.07,379.77 94.07,379.77zm712.8 1160.93c0,0 -588.58,-45.84 -438.31,-356.43 150.29,-310.62 307.49,53.84 307.49,53.84 0,0 28.97,-394.74 225.26,-239.09 196.27,155.65 -94.44,541.68 -94.44,541.68zm-654.19 1141.28c0,0 -356.22,178.04 -377.27,-53.8 -21.05,-231.79 196.49,-75.7 196.49,-75.7 0,0 -120.4,-238.29 47.17,-216.52 167.57,21.8 133.61,346.02 133.61,346.02z"/>
   <path class="fil2" d="M1136.84 5441.41c0,27.32 -11.19,52.23 -29.29,70.36 -17.96,18.12 -42.89,29.29 -70.39,29.29 -27.3,0 -52.19,-11.17 -70.27,-29.21l-0.17 -0.16c-18.04,-18.1 -29.21,-42.99 -29.21,-70.27 0,-27.49 11.17,-52.42 29.21,-70.46 18.19,-18.02 43.1,-29.21 70.44,-29.21 27.49,0 52.42,11.17 70.46,29.21 18.04,18.04 29.21,42.97 29.21,70.46zm-91.24 8.32c2.08,-1.99 3.34,-4.94 3.34,-8.32 0,-3.26 -1.32,-6.25 -3.42,-8.35 -2.1,-2.1 -5.08,-3.43 -8.35,-3.43 -3.36,0 -6.33,1.27 -8.33,3.26 -2.09,2.26 -3.42,5.25 -3.42,8.51 0,3.38 1.27,6.33 3.26,8.32l0.16 0.17c2,1.99 4.97,3.26 8.33,3.26 3.26,0 6.25,-1.33 8.43,-3.43zm146.97 -2863.52c0,27.49 -11.17,52.42 -29.21,70.46 -18.04,18.04 -42.97,29.21 -70.46,29.21 -27.39,0 -52.25,-11.21 -70.29,-29.21 -18.21,-18.04 -29.38,-42.97 -29.38,-70.46 0,-27.34 11.19,-52.25 29.3,-70.36 17.96,-18.13 42.89,-29.3 70.38,-29.3 27.32,0 52.19,11.17 70.3,29.21l0.16 0.17c18.04,18.08 29.21,42.97 29.21,70.27zm-91.33 8.35c2.1,-2.1 3.42,-5.08 3.42,-8.35 0,-3.36 -1.26,-6.33 -3.26,-8.32l-0.16 -0.17c-1.99,-1.99 -4.96,-3.26 -8.35,-3.26 -3.26,0 -6.25,1.33 -8.34,3.43 -2.16,1.99 -3.43,4.96 -3.43,8.32 0,3.26 1.33,6.25 3.43,8.35 2.01,2.14 5.02,3.43 8.34,3.43 3.26,0 6.25,-1.33 8.35,-3.43zm-527.21 1013.96c0,27.29 -11.17,52.18 -29.21,70.28l-0.16 0.16c-18.11,18.04 -43,29.21 -70.28,29.21 -27.49,0 -52.42,-11.17 -70.46,-29.21 -18.02,-18.21 -29.21,-43.12 -29.21,-70.44 0,-27.34 11.19,-52.25 29.3,-70.36 17.96,-18.12 42.89,-29.3 70.38,-29.3 27.28,0 52.17,11.18 70.28,29.21l0.16 0.17c18.04,18.08 29.21,42.97 29.21,70.27zm-91.16 8.33c1.99,-1.99 3.26,-4.94 3.26,-8.33 0,-3.36 -1.27,-6.33 -3.26,-8.32l-0.16 -0.17c-2,-1.99 -4.94,-3.26 -8.33,-3.26 -3.26,0 -6.25,1.33 -8.35,3.43 -2.16,1.99 -3.42,4.96 -3.42,8.32 0,3.39 1.27,6.34 3.26,8.33 2.26,2.1 5.26,3.43 8.51,3.43 3.39,0 6.33,-1.27 8.33,-3.26l0.16 -0.16zm1981.46 -3218.28c0,27.28 -11.17,52.17 -29.21,70.28l-0.16 0.16c-18.11,18.04 -43,29.21 -70.28,29.21 -27.3,0 -52.19,-11.17 -70.28,-29.21l-0.16 -0.16c-18.04,-18.11 -29.21,-43 -29.21,-70.28 0,-27.49 11.17,-52.42 29.21,-70.46 18.19,-18.02 43.1,-29.21 70.44,-29.21 27.28,0 52.17,11.17 70.28,29.21l0.16 0.16c18.04,18.09 29.21,42.98 29.21,70.3zm-91.16 8.33c1.99,-2 3.26,-4.95 3.26,-8.33 0,-3.39 -1.27,-6.36 -3.26,-8.35l-0.16 -0.16c-1.99,-2 -4.94,-3.26 -8.33,-3.26 -3.37,0 -6.33,1.26 -8.33,3.26 -2.1,2.26 -3.42,5.26 -3.42,8.51 0,3.38 1.27,6.33 3.26,8.33l0.16 0.16c2,1.99 4.96,3.26 8.33,3.26 3.39,0 6.34,-1.27 8.33,-3.26l0.16 -0.16zm-1743.43 3755.03c0,27.28 -11.17,52.17 -29.21,70.28l-0.16 0.16c-18.11,18.04 -43,29.21 -70.28,29.21 -27.3,0 -52.19,-11.17 -70.28,-29.21l-0.16 -0.16c-18.04,-18.11 -29.21,-43 -29.21,-70.28 0,-27.3 11.17,-52.19 29.21,-70.28l0.16 -0.16c18.09,-18.04 42.98,-29.21 70.28,-29.21 27.28,0 52.17,11.17 70.28,29.21l0.16 0.16c18.04,18.09 29.21,42.98 29.21,70.28zm-91.16 8.33c2,-2 3.26,-4.94 3.26,-8.33 0,-3.37 -1.26,-6.33 -3.26,-8.33l-0.16 -0.16c-1.99,-1.99 -4.94,-3.26 -8.33,-3.26 -3.37,0 -6.33,1.27 -8.33,3.26l-0.16 0.16c-1.99,2 -3.26,4.96 -3.26,8.33 0,3.39 1.27,6.33 3.26,8.33l0.16 0.16c2,1.99 4.96,3.26 8.33,3.26 3.39,0 6.34,-1.27 8.33,-3.26l0.16 -0.16zm598.28 543.57c0,27.32 -11.19,52.24 -29.29,70.36 -17.96,18.13 -42.89,29.3 -70.39,29.3 -27.3,0 -52.19,-11.17 -70.27,-29.21l-0.17 -0.16c-18.04,-18.11 -29.21,-43 -29.21,-70.28 0,-27.49 11.17,-52.42 29.21,-70.46 18.19,-18.02 43.1,-29.21 70.44,-29.21 27.49,0 52.42,11.17 70.46,29.21 18.04,18.04 29.21,42.98 29.21,70.46zm-91.24 8.33c2.08,-2 3.34,-4.94 3.34,-8.33 0,-3.26 -1.32,-6.25 -3.42,-8.35 -2.1,-2.1 -5.08,-3.42 -8.35,-3.42 -3.36,0 -6.33,1.27 -8.33,3.26 -2.09,2.26 -3.42,5.26 -3.42,8.51 0,3.39 1.27,6.33 3.26,8.33l0.16 0.16c2,1.99 4.97,3.26 8.33,3.26 3.26,0 6.25,-1.32 8.43,-3.42zm394.09 -3044.56c0,27.49 -11.17,52.42 -29.21,70.46 -18.04,18.04 -42.97,29.21 -70.46,29.21 -27.49,0 -52.42,-11.17 -70.46,-29.21 -18.04,-18.04 -29.21,-42.97 -29.21,-70.46 0,-27.34 11.18,-52.26 29.29,-70.36 17.96,-18.12 42.89,-29.29 70.38,-29.29 27.49,0 52.42,11.17 70.46,29.21 18.02,18.19 29.21,43.1 29.21,70.44zm-91.33 8.34c2.1,-2.1 3.43,-5.08 3.43,-8.34 0,-3.37 -1.27,-6.34 -3.26,-8.33 -2.26,-2.1 -5.25,-3.43 -8.51,-3.43 -3.26,0 -6.24,1.33 -8.34,3.43 -2.16,1.99 -3.43,4.96 -3.43,8.33 0,3.26 1.33,6.24 3.43,8.34 2.1,2.1 5.08,3.43 8.34,3.43 3.26,0 6.25,-1.33 8.35,-3.43z"/>
   <path class="fil8" d="M1092.91 5441.41c0,30.76 -24.94,55.71 -55.73,55.71 -30.77,0 -55.72,-24.94 -55.72,-55.71 0,-30.77 24.94,-55.72 55.72,-55.72 30.79,0 55.73,24.94 55.73,55.72zm55.71 -2855.18c0,30.76 -24.94,55.7 -55.71,55.7 -30.79,0 -55.73,-24.94 -55.73,-55.7 0,-30.79 24.94,-55.72 55.73,-55.72 30.77,0 55.71,24.92 55.71,55.72zm-618.55 1022.28c0,30.77 -24.93,55.72 -55.69,55.72 -30.77,0 -55.72,-24.94 -55.72,-55.72 0,-30.76 24.94,-55.7 55.72,-55.7 30.76,0 55.69,24.94 55.69,55.7zm1890.31 -3209.95c0,30.76 -24.92,55.71 -55.7,55.71 -30.77,0 -55.72,-24.94 -55.72,-55.71 0,-30.79 24.94,-55.74 55.72,-55.74 30.78,0 55.7,24.95 55.7,55.74zm-1834.59 3763.35c0,30.77 -24.94,55.72 -55.72,55.72 -30.76,0 -55.69,-24.94 -55.69,-55.72 0,-30.76 24.93,-55.7 55.69,-55.7 30.77,0 55.72,24.94 55.72,55.7zm507.12 551.9c0,30.76 -24.94,55.72 -55.73,55.72 -30.77,0 -55.72,-24.95 -55.72,-55.72 0,-30.77 24.94,-55.72 55.72,-55.72 30.79,0 55.73,24.94 55.73,55.72zm302.82 -3036.22c0,30.79 -24.95,55.73 -55.71,55.73 -30.78,0 -55.73,-24.94 -55.73,-55.73 0,-30.77 24.95,-55.71 55.73,-55.71 30.76,0 55.71,24.94 55.71,55.71z"/>
   <path class="fil5" d="M6576.65 5385c16.02,-28.67 244.15,-426.38 444.7,-187.54 133.43,158.93 59.35,224.49 -27.97,251.55 68.7,63.94 119.27,154.9 -23.25,228.83 -203.98,105.84 -393.67,-239.15 -394.19,-240.1 -9.53,-17.03 -8.59,-37.08 0.71,-52.73zm363.94 -119.98c-88.59,-105.49 -214.63,76.9 -257.55,146.76 39.46,63.36 148.53,219.44 238.88,172.55 62.95,-32.66 -64.3,-108.02 -87.45,-121.18 -18.14,-8.35 -30.75,-26.68 -30.75,-47.94 0,-29.1 23.63,-52.73 52.74,-52.73 0.48,0 167.75,2.16 84.13,-97.46zm-971.38 -3882.07c-32.58,-37.42 -426.56,-501.32 -46.15,-642.42 269.44,-99.96 300.81,49.1 286.3,175.41 111.86,-66.87 267.07,-115.66 296.76,102.33 40.73,299.17 -485.23,384.01 -486.72,384.25 -19.7,3.28 -38.68,-4.85 -50.18,-19.57zm-9.49 -543.55c-214.61,79.59 2.94,370.36 71.27,453.84 95.48,-19.75 393.51,-94.94 370.9,-260.97 -20.28,-148.86 -240.75,48.46 -241.37,48.99 -14.08,12.25 -34.23,16.63 -52.94,9.67 -27.18,-10.11 -41,-40.38 -30.89,-67.55 0.27,-0.73 98.64,-263.98 -116.97,-183.99zm524.86 1889.81c-16.59,-41.15 -240.38,-614.06 167.15,-622.46 287.17,-5.92 267.84,145.16 212.66,259.68 127.7,-26.24 290.14,-21.11 246.78,193.72 -59.83,296.39 -584.16,203.63 -585.66,203.38 -19.53,-3.26 -34.73,-16.9 -40.94,-34.32zm169.22 -517.41c-228.96,4.73 -118.79,350.91 -81.63,452.24 96.96,12.68 402.96,39.34 436.03,-124.48 29.88,-148.1 -242.65,-33.56 -243.41,-33.24 -17.54,7.12 -38.38,4.69 -53.95,-8.24 -22.3,-18.54 -25.35,-51.66 -6.81,-73.95 0.49,-0.6 180.02,-217.06 -50.22,-212.33zm130.32 2541.97c-5.05,-42.6 -48.02,-463.6 238.15,-393.64 192.11,46.95 174.85,138.4 123.95,208.75 88.4,11.55 175.8,54.4 108.25,190.88 -97.75,197.5 -438.88,39.11 -439.85,38.68 -18.23,-8.41 -29.35,-25.93 -30.5,-44.68zm213.45 -291.45c-122.74,-30.02 -117.97,173.79 -111.76,252.04 65.98,26.39 232.74,82.9 274.32,-1.14 29.79,-60.19 -122.91,-41.09 -134.43,-39.57 -18.73,2.84 -38.37,-4.59 -50.35,-20.91 -17.17,-23.42 -12.09,-56.37 11.33,-73.54 0.34,-0.25 124.76,-89.07 10.88,-116.89z"/>
   <path class="fil9" d="M6621.9 5412c0,0 201.18,-368.81 359.08,-180.76 157.89,188.05 -124.51,183.96 -124.51,183.96 0,0 247.83,133.79 89.57,215.88 -158.21,82.11 -324.14,-219.08 -324.14,-219.08zm-611.14 -4061.36c0,0 -392.88,-440.67 -69.36,-560.67 323.51,-120.04 184.52,251.76 184.52,251.76 0,0 294.29,-264.67 328.09,-16.46 33.81,248.21 -443.25,325.37 -443.25,325.37zm523.44 1360.99c0,0 -226.39,-545.21 118.59,-552.35 345.01,-7.12 91.64,298.43 91.64,298.43 0,0 364.85,-153.37 315.28,92.17 -49.58,245.55 -525.51,161.76 -525.51,161.76zm302.49 2039.04c0,0 -52.84,-394.72 173.26,-339.43 226.1,55.27 7.88,210.41 7.88,210.41 0,0 264.47,-36.6 189.51,114.85 -74.95,151.44 -370.65,14.17 -370.65,14.17z"/>
   <path class="fil2" d="M7408.14 3631.34c-5.84,26.87 -22.19,48.87 -43.75,62.64 -21.44,13.66 -48.15,19.2 -74.95,13.29 -26.81,-5.92 -48.73,-22.22 -62.43,-43.66 -12.83,-20.08 -18.46,-44.75 -14.28,-69.82 0.35,-3.57 1.12,-7.04 2.28,-10.32 6.77,-24.44 22.28,-44.43 42.36,-57.26 20.08,-12.79 44.72,-18.44 69.8,-14.26 2.82,0.26 5.58,0.81 8.24,1.6 25.37,6.48 46.15,22.36 59.33,43.04 13.65,21.36 19.19,47.96 13.4,74.76zm-90.79 -11.19c2.43,-1.55 4.34,-4.15 5.03,-7.32l0.16 -0.19c0.71,-3.2 0.02,-6.44 -1.62,-9.01 -1.56,-2.45 -4.13,-4.34 -7.29,-5.03l-0.21 -0.16c-3.2,-0.7 -6.46,-0.04 -9.01,1.6 -2.48,1.58 -4.4,4.15 -5.15,7.27l-0.04 0.23c-0.71,3.22 -0.02,6.46 1.62,9.04 1.62,2.55 4.27,4.5 7.5,5.21 3.19,0.71 6.44,0.02 9.01,-1.62zm72.71 -715.27c-6.64,24.87 -22.32,45.2 -42.6,58.15 -21.53,13.75 -48.19,19.29 -74.76,13.45 -26.87,-5.89 -48.86,-22.25 -62.62,-43.8 -13.7,-21.45 -19.2,-48.15 -13.29,-74.97 5.9,-26.76 22.09,-48.64 43.52,-62.32 21.44,-13.85 48.16,-19.4 74.89,-13.54l4.46 1.2c24.85,6.64 45.18,22.3 58.15,42.61 13.75,21.53 19.29,48.18 13.45,74.76l-1.2 4.46zm-89.65 -15.67c2.14,-1.37 3.86,-3.45 4.78,-6.02l0.25 -1.29c0.74,-3.42 0.14,-6.71 -1.45,-9.2 -1.37,-2.13 -3.45,-3.86 -6.02,-4.78l-1.29 -0.24c-3.34,-0.73 -6.58,-0.13 -9.04,1.45 -2.69,1.6 -4.65,4.25 -5.36,7.47 -0.7,3.21 -0.02,6.45 1.63,9.03 1.55,2.43 4.15,4.34 7.3,5.03 3.43,0.74 6.73,0.12 9.2,-1.45zm-555.03 2162.84c-0.33,3.59 -1.12,7.08 -2.26,10.36 -6.79,24.52 -22.27,44.51 -42.21,57.28l-3.39 1.97c-19.45,11.38 -42.85,16.26 -66.56,12.29 -3.57,-0.34 -7.04,-1.12 -10.32,-2.26 -24.48,-6.77 -44.49,-22.32 -57.3,-42.38 -13.75,-21.53 -19.29,-48.18 -13.45,-74.78 5.89,-26.84 22.25,-48.85 43.8,-62.62 21.43,-13.64 48.15,-19.2 74.97,-13.28 26.78,5.91 48.71,22.19 62.43,43.66 12.81,20.03 18.46,44.68 14.28,69.76zm-91.84 -6.19c2.57,-1.62 4.52,-4.15 5.27,-7.16l0.09 -0.36c0.7,-3.19 0.02,-6.44 -1.63,-9.01 -1.62,-2.53 -4.27,-4.51 -7.49,-5.21 -3.2,-0.71 -6.46,-0.02 -9.04,1.62 -2.43,1.56 -4.34,4.15 -5.02,7.31 -0.75,3.42 -0.15,6.72 1.45,9.21 1.55,2.45 4.09,4.36 7.16,5.11l0.37 0.08c2.74,0.6 5.51,0.21 7.85,-0.95l0.98 -0.64zm-328.07 -3398.62c-5.84,26.86 -22.19,48.85 -43.75,62.62 -21.42,13.68 -48.1,19.2 -74.95,13.29 -26.76,-5.9 -48.64,-22.14 -62.35,-43.52 -13.85,-21.47 -19.39,-48.19 -13.54,-74.89l1.12 -4.17c11.13,-43.54 42.81,-66.46 77.81,-72.18 13.06,-2.16 26.68,-1.66 39.68,1.2 13.04,2.86 25.62,8.16 36.6,15.65l3.09 2.33c28.3,20.78 45.91,55.33 36.27,99.68zm-90.79 -11.21c2.43,-1.55 4.35,-4.13 5.03,-7.31l0.16 -0.19c1.04,-4.73 -0.06,-8.2 -2.16,-10.17l-1.06 -0.7c-1.77,-1.2 -3.88,-2.1 -6.04,-2.58 -2.18,-0.47 -4.52,-0.56 -6.71,-0.21 -2.78,0.44 -5.5,2.64 -6.89,6.89l-0.29 1.5c-0.72,3.34 -0.12,6.58 1.45,9.03 1.62,2.7 4.28,4.65 7.5,5.36 3.2,0.71 6.44,0.02 9.01,-1.62zm563.01 2563.81c-6.62,24.79 -22.24,45.07 -42.48,58.05 -20.72,13.39 -46.4,18.99 -72.17,14.1 -2.76,-0.42 -5.46,-1.1 -8.03,-2 -24.54,-6.79 -44.53,-22.27 -57.3,-42.21l-1.91 -3.28c-11.46,-19.47 -16.34,-42.87 -12.38,-66.66 0.27,-2.83 0.82,-5.58 1.6,-8.25 6.47,-25.37 22.36,-46.15 43.04,-59.35 21.44,-13.7 48.15,-19.2 74.97,-13.29 26.81,5.92 48.71,22.17 62.43,43.64 13.74,21.54 19.29,48.19 13.45,74.77l-1.22 4.48zm-89.73 -15.69c2.24,-1.37 3.97,-3.47 4.88,-6.02l0.25 -1.29c0.74,-3.43 0.14,-6.71 -1.45,-9.2 -1.62,-2.53 -4.25,-4.48 -7.5,-5.19 -3.19,-0.7 -6.46,-0.01 -9.03,1.63 -2.43,1.55 -4.34,4.15 -5.03,7.3l-0.16 0.21c-0.6,2.74 -0.19,5.51 0.97,7.85l0.64 0.98c1.41,2.24 3.53,4.02 6.04,4.94l1.29 0.25c3.32,0.72 6.56,0.12 9.09,-1.45zm300.14 -2556.73c-5.84,26.84 -22.19,48.85 -43.75,62.6 -21.42,13.68 -48.11,19.2 -74.95,13.28 -26.81,-5.91 -48.73,-22.19 -62.43,-43.64 -13.74,-21.53 -19.29,-48.18 -13.45,-74.76 5.9,-26.86 22.26,-48.85 43.81,-62.6 21.36,-13.64 47.96,-19.18 74.74,-13.33 26.88,5.78 48.85,22.12 62.64,43.69 13.64,21.36 19.18,47.96 13.39,74.76zm-90.79 -11.23c2.45,-1.56 4.34,-4.13 5.03,-7.29l0.16 -0.19c0.71,-3.2 0.02,-6.44 -1.62,-9.01 -1.55,-2.43 -4.13,-4.35 -7.31,-5.03l-0.19 -0.16c-3.19,-0.71 -6.44,-0.02 -9.01,1.62 -2.46,1.55 -4.34,4.15 -5.03,7.29 -0.74,3.42 -0.12,6.72 1.45,9.19 1.62,2.53 4.27,4.49 7.5,5.19 3.19,0.71 6.44,0.02 9.01,-1.62z"/>
   <path class="fil8" d="M7365.3 3622.08c-6.63,30.06 -36.37,49.05 -66.41,42.43 -30.06,-6.63 -49.04,-36.36 -42.41,-66.42 6.63,-30.05 36.34,-49.04 66.41,-42.41 30.04,6.63 49.04,36.36 42.41,66.41zm-16.95 -730.92c-6.62,30.05 -36.36,49.03 -66.4,42.41 -30.06,-6.63 -49.04,-36.35 -42.41,-66.41 6.62,-30.04 36.34,-49.03 66.4,-42.4 30.04,6.62 49.04,36.35 42.41,66.4zm-646.71 2156.64c-6.63,30.06 -36.36,49.05 -66.42,42.42 -30.04,-6.62 -49.04,-36.36 -42.41,-66.42 6.63,-30.05 36.36,-49.04 66.41,-42.41 30.06,6.62 49.05,36.36 42.42,66.41zm-419.02 -3409.8c-6.62,30.06 -36.35,49.04 -66.4,42.4 -30.05,-6.62 -49.04,-36.33 -42.41,-66.4 15.78,-71.55 124.6,-47.57 108.81,24zm473.37 2548.11c-6.63,30.05 -36.36,49.04 -66.39,42.41 -30.07,-6.63 -49.06,-36.36 -42.44,-66.4 6.63,-30.05 36.36,-49.03 66.43,-42.4 30.03,6.62 49.02,36.35 42.4,66.39zm209.27 -2567.95c-6.63,30.04 -36.36,49.03 -66.41,42.41 -30.04,-6.62 -49.04,-36.36 -42.41,-66.4 6.63,-30.04 36.36,-49.03 66.41,-42.41 30.04,6.62 49.04,36.36 42.41,66.4z"/>
   <path class="fil10" d="M5187.74 3940.12c0,118.8 -117.6,215.07 -262.82,215.07 -144.69,0 -262.28,-96.27 -262.28,-215.07 0,-118.77 117.6,-215.07 262.28,-215.07 145.23,0 262.82,96.3 262.82,215.07z"/>
   <path class="fil10" d="M3083.33 3940.12c0,118.8 -117.6,215.07 -262.82,215.07 -144.71,0 -262.31,-96.27 -262.31,-215.07 0,-118.77 117.6,-215.07 262.31,-215.07 145.23,0 262.82,96.3 262.82,215.07z"/>
   <path class="fil11" d="M2796.44 2552.41l-12.94 -26.22 -214.12 433.86 -478.68 69.6 8.31 8.08 493.25 -71.58 204.18 -413.74zm783.56 991.57c0,0 18.53,421.99 297.3,421.99 279.17,0 286.27,-421.99 286.27,-421.99l-583.57 0zm2125.32 -498.34l-98.25 -14.26 35.95 -35.01 -513.1 -74.5 -226.23 -458.39 -16.95 34.33 -39.04 -79.14 -245.65 497.89 -549.66 79.81 50.51 49.2 -0.44 0.07 347.66 338.99 -93.72 546.52 67.88 -35.7 -15.84 92.3 495.26 -260.41 495.25 260.41 -94.63 -551.48 401.01 -390.64zm-845.11 -494.08l-204.15 413.68 -493.7 71.7 -7.47 -7.29 478.68 -69.6 214.12 -433.86 12.51 25.36zm-368.95 873.21l11.81 11.51 -68.65 400.04 -14.94 7.85 71.79 -419.41zm-2064.05 1.07l-71.95 418.34 15.44 -8.11 68.16 -398.87 -11.65 -11.36zm638.42 -503.97l-225.77 -457.46 -16.91 34.27 -39.46 -79.99 -245.65 497.89 -549.27 79.81 51.23 49.96 -1.55 0.23 347.52 338.87 -93.58 545.73 68.42 -35.98 -15.97 93.5 495.24 -260.41 495.26 260.41 -94.63 -551.48 400.62 -390.64 -99.02 -14.39 36.71 -35.8 -513.17 -74.51z"/>
   <path class="fil12" d="M4847.7 3619.06l428.22 225.11 -81.63 -476.87 346.2 -337.65 -478.69 -69.6 -214.11 -433.86 -214.12 433.86 -478.68 69.6 346.2 337.65 -81.63 476.87 428.22 -225.11zm-2064.21 0l428.21 225.11 -81.61 -476.87 346.6 -337.65 -479.08 -69.6 -214.12 -433.86 -214.12 433.86 -478.68 69.6 346.6 337.65 -82.02 476.87 428.22 -225.11z"/>
   <path class="fil10" d="M3698.28 3802.4c30.38,69.2 83.22,132.62 175.49,132.62 78.08,0 126.55,-45.39 157.32,-101.19 -99.36,-81.83 -232.64,-78.43 -332.81,-31.43z"/>
  </g>
 </g>
</svg>