<?xml version="1.0" encoding="UTF-8"?><!DOCTYPE svg PUBLIC "-//W3C//DTD SVG 1.1//EN" "http://www.w3.org/Graphics/SVG/1.1/DTD/svg11.dtd"><!-- Creator: CorelDRAW 2019 (64 Bit) --><svg xmlns="http://www.w3.org/2000/svg" xmlns:xlink="http://www.w3.org/1999/xlink" xmlns:xodm="http://www.corel.com/coreldraw/odm/2003" xml:space="preserve" width="107.339mm" height="113.013mm" version="1.1" style="shape-rendering:geometricPrecision; text-rendering:geometricPrecision; image-rendering:optimizeQuality; fill-rule:evenodd; clip-rule:evenodd" viewBox="0 0 4046.65 4260.53">
 <defs>
  <style type="text/css">
   <![CDATA[
    .fil0 {fill:white}
    .fil10 {fill:#828282;fill-rule:nonzero}
    .fil12 {fill:#003049;fill-rule:nonzero}
    .fil13 {fill:#003049;fill-rule:nonzero}
    .fil7 {fill:#6f6f6f;fill-rule:nonzero}
    .fil2 {fill:#aaaaaa;fill-rule:nonzero}
    .fil1 {fill:#c6c6c6;fill-rule:nonzero}
    .fil6 {fill:#5e5e5e;fill-rule:nonzero}
    .fil5 {fill:#6f6f6f;fill-rule:nonzero}
    .fil3 {fill:#828282;fill-rule:nonzero}
    .fil4 {fill:#828282;fill-rule:nonzero}
    .fil9 {fill:#aaaaaa;fill-rule:nonzero}
    .fil11 {fill:#aaaaaa;fill-rule:nonzero}
    .fil8 {fill:white;fill-rule:nonzero}
   ]]>
  </style>
 </defs>
 <g id="Camada_x0020_1">
  <metadata id="CorelCorpID_0Corel-Layer"/>
  <g id="_1527012408000">
   <path class="fil0" d="M3718.04 1041.04c14.03,17.48 25.79,37.62 34.76,60.6 84.47,37.12 132.22,112.99 136.11,202.65 103.81,34.6 167.89,144.25 143.85,253.25 -13.57,61.53 -52.7,111.44 -103.76,141.04 85.02,44.31 134.12,142.43 112.6,240.01 -19.68,89.23 -93.11,154.04 -178.76,167.87 3.75,37.68 6.61,75.46 8.58,113.27 19.05,24.88 32.09,53.3 38.41,83.92 68.62,69.26 78.65,169.27 34.28,258.92 -21.15,42.72 -51.74,77.33 -91.03,101.65 -1.23,8.99 -2.5,17.97 -3.83,26.94 26.76,60.42 29.99,125.71 2.79,186.03 15.28,89.86 -25.97,171.7 -102.33,221.49 -19.97,57.37 -42.38,113.89 -67.28,169.29 -279.26,621.51 -908.2,969.43 -1574.87,991.31 -33.59,1.1 -67.21,1.53 -100.81,1.02 -4.77,0.02 -9.52,-0.09 -14.29,-0.17 -699.07,-11.17 -1333.86,-337.04 -1628.19,-992.17 -54.16,-120.55 -96.55,-246.3 -127.59,-374.74 -110.75,-22.68 -188.81,-105.76 -199.82,-226.94 -8.65,-95.2 22.73,-188.46 104.59,-238.69 8.28,-16.86 18.61,-32.57 30.9,-46.72 -0.11,-7.14 -0.19,-14.29 -0.23,-21.43 -58.78,-39.9 -95.41,-106.9 -95.41,-180.03 0,-47.01 15.14,-91.56 41.66,-128 -43.84,-40.17 -70.71,-97.79 -70.71,-160.49 0,-102.12 70.5,-187.88 165.45,-211.23 -52.25,-10.21 -101.56,-32.97 -140.4,-71 -52.47,-51.38 -75.06,-121.06 -72.51,-193.57 3.46,-98.21 47.46,-188.81 137.73,-228.15 53.73,-84.58 151.57,-116.23 251.26,-90.24 43.39,11.31 81.19,32.07 111.89,61.66 2.04,-0.89 4.1,-1.75 6.18,-2.57 23.46,-34.56 48.27,-68.21 74.39,-100.81 -50.86,-40.24 -82.72,-102.43 -82.72,-170.73 0,-97.37 64.09,-179.86 152.36,-207.57 -5.68,-5.51 -11.22,-11.08 -16.57,-16.69 -132.24,-138.46 -154.88,-330.81 6.51,-457.99 90.14,-71.04 206.88,-102.53 309.2,-39.58 30.3,-7.07 60.97,-8.32 90.67,-3.49 25.59,-91.66 109.75,-158.98 209.54,-158.98 94.66,0 175.26,60.58 205.13,145.05 181.87,-52.3 381.3,-71.7 567.61,-71.7 216.62,0 453.68,26.54 657.92,101.01 87.72,31.99 181.29,78.51 252.43,144.39 31.5,-32.84 71.32,-57.32 115.98,-73.89 108.35,-40.2 227.88,-34.72 306.36,57.22 116.17,9.35 196.83,96.73 213.18,216.72 5.46,40.12 2.18,81.18 -9.6,119.81 34.07,-10.14 70.99,-12.09 107.84,-3.96 116.41,25.67 191.25,142.84 165.58,259.25 -14.55,65.97 -58.48,118.59 -115.01,147.13z"/>
   <path class="fil1" d="M3527.75 3212.96c-252.12,561.05 -823.15,869.34 -1423.3,889.02 -31.89,1.06 -63.66,1.44 -95.28,0.92 -3.94,0.14 -7.75,0 -11.69,-0.12 -628.11,-9.97 -1206.09,-293.59 -1473.96,-889.81 -234.26,-521.42 -233.48,-1159.25 -15.75,-1681.32 95.54,-229.16 247.64,-439.26 448.58,-587.04 81.47,-59.82 177.61,-88.17 228.16,-171.3 8.7,25.71 26.05,50.43 50.94,73.73 15.09,14.3 33.2,28.1 53.81,41.21 9.83,6.31 20.21,12.34 31.23,18.37 19.16,10.5 40.16,20.47 62.59,30.06 17.07,7.22 35.04,14.17 53.82,20.73 36.08,12.72 75.07,24.28 116.8,34.51 17.45,4.2 35.44,8.28 53.82,12.07 43.17,8.93 88.59,16.54 136.09,22.71 17.58,2.24 35.57,4.33 53.8,6.04 41.21,4.34 83.73,7.35 127.18,9.18 17.85,0.79 35.7,1.44 53.81,1.7 15.61,0.39 31.36,0.53 47.25,0.53 27.81,0 55.38,-0.53 82.68,-1.44 18.1,-0.66 35.95,-1.45 53.81,-2.62 47.64,-2.75 93.96,-6.96 138.58,-12.6 18.24,-2.24 36.23,-4.74 53.81,-7.48 45.53,-6.96 88.97,-15.35 129.92,-24.93 18.51,-4.47 36.35,-8.93 53.8,-13.78 37.14,-10.37 71.79,-21.65 103.68,-34.13 18.91,-7.22 36.88,-14.83 53.81,-22.83 12.21,-5.78 23.89,-11.68 35.04,-17.72 22.45,-12.2 42.53,-25.07 60.11,-38.45 22.18,-16.93 40.28,-34.78 53.81,-53.29 9.85,-13.56 17.29,-27.5 22.08,-41.73l0.02 0.04c50.4,83.21 146.6,111.56 228.09,171.41 200.94,147.78 353.05,357.88 448.59,587.04 217.73,522.07 218.52,1159.9 -15.75,1681.32z"/>
   <path class="fil2" d="M1215.67 654.9l0 0c5.93,7.03 12.48,13.97 19.78,20.74 1.19,1.11 2.39,2.21 3.62,3.31 -8.67,-7.86 -16.49,-15.89 -23.39,-24.05zm-31.16 118.41c-50.55,83.12 -146.69,111.47 -228.16,171.3 -200.93,147.78 -353.04,357.9 -448.58,587.04 -217.73,522.07 -218.51,1159.9 15.75,1681.32 267.87,596.22 845.84,879.84 1473.96,889.81 2.79,0.09 5.5,0.17 8.24,0.17 1.14,0 2.28,-0.01 3.44,-0.05 9.43,0.16 18.88,0.24 28.35,0.24 22.25,0 44.56,-0.41 66.94,-1.15 600.15,-19.68 1171.18,-327.97 1423.3,-889.02 234.27,-521.42 233.47,-1159.25 15.75,-1681.32 -95.54,-229.15 -247.66,-439.26 -448.58,-587.04 -81.5,-59.85 -177.7,-88.19 -228.1,-171.41l-0.02 -0.04c-4.8,14.23 -12.23,28.17 -22.08,41.73 -13.53,18.51 -31.63,36.36 -53.81,53.29 -17.58,13.38 -37.67,26.25 -60.11,38.45 -2.67,1.44 -5.36,2.88 -8.08,4.31 57.62,76.02 130.79,117.92 191.1,152.45 24.03,13.76 46.71,26.77 64.47,39.8 163.52,120.26 296.13,294.61 383.52,504.24 199.39,478.08 194.16,1062.39 -13.61,1524.86 -103.66,230.7 -277.56,424.17 -502.9,559.42 -80.53,48.35 -166.61,88.91 -256.82,121.29 -147.14,70.89 -345.08,114.33 -562.82,114.33 -208.27,0 -398.43,-39.75 -543.34,-105.25 -355.93,-117.85 -629.15,-355.77 -779.2,-689.78 -207.8,-462.49 -213.01,-1046.79 -13.63,-1524.89 87.41,-209.61 220.03,-383.96 383.41,-504.12 17.9,-13.15 40.61,-26.15 64.65,-39.93 60.3,-34.53 133.46,-76.43 191.1,-152.37 -2.74,-1.44 -5.45,-2.9 -8.12,-4.37 -11.03,-6.04 -21.4,-12.07 -31.23,-18.37 -20.61,-13.11 -38.72,-26.91 -53.81,-41.21 -24.89,-23.29 -42.24,-48.02 -50.94,-73.73zm1651.21 -118.53l0 -0.01c-7.48,8.87 -16.02,17.56 -25.58,26.06 9.56,-8.49 18.11,-17.17 25.58,-26.05zm-47.29 43.75c-14.11,10.6 -29.85,20.86 -47.08,30.73 17.23,-9.87 32.95,-20.11 47.08,-30.73zm-1417.23 61.49c-40.11,-17.75 -74.89,-37.15 -103.44,-57.88 6.81,4.97 13.98,9.88 21.51,14.73 23.97,15.25 51.34,29.66 81.94,43.16z"/>
   <path class="fil3" d="M2873.19 563.69l0 171.39c0,27.56 -9.98,54.33 -28.47,79.79 -13.52,18.51 -31.63,36.36 -53.8,53.29 -17.59,13.38 -37.67,26.25 -60.11,38.45 -11.16,6.04 -22.84,11.94 -35.05,17.72 -16.93,8 -34.9,15.61 -53.81,22.83 -31.89,12.47 -66.54,23.75 -103.68,34.13 -17.46,4.85 -35.29,9.3 -53.81,13.78 -40.95,9.59 -84.39,17.98 -129.92,24.93 -17.58,2.75 -35.57,5.25 -53.8,7.48 -44.62,5.64 -90.95,9.85 -138.59,12.6 -17.86,1.18 -35.71,1.97 -53.8,2.62 -27.31,0.92 -54.88,1.45 -82.69,1.45 -15.89,0 -31.64,-0.14 -47.25,-0.53 -18.11,-0.26 -35.96,-0.92 -53.81,-1.7 -43.44,-1.84 -85.97,-4.85 -127.18,-9.18 -18.24,-1.71 -36.22,-3.81 -53.81,-6.04 -47.5,-6.16 -92.92,-13.78 -136.09,-22.71 -18.37,-3.8 -36.36,-7.88 -53.82,-12.07 -41.73,-10.24 -80.71,-21.79 -116.79,-34.51 -18.78,-6.57 -36.75,-13.52 -53.82,-20.73 -22.43,-9.59 -43.43,-19.56 -62.59,-30.06 -11.03,-6.04 -21.4,-12.07 -31.23,-18.37 -20.61,-13.11 -38.72,-26.91 -53.81,-41.21 -37.01,-34.64 -57.36,-72.45 -57.36,-111.95l0 -171.39c0,29.65 11.55,58.4 33.07,85.7 7.09,8.92 15.1,17.72 24.29,26.25 15.21,14.16 33.2,27.94 53.81,41.21 27.03,17.19 58.39,33.33 93.82,48.29 17.07,7.22 35.05,14.18 53.82,20.73 36.08,12.72 75.07,24.28 116.79,34.39 17.46,4.33 35.45,8.39 53.82,12.21 43.17,8.92 88.59,16.53 136.09,22.57 17.72,2.36 35.57,4.46 53.81,6.17 41.21,4.32 83.73,7.35 127.18,9.18 17.71,0.79 35.7,1.44 53.81,1.7 15.61,0.4 31.36,0.53 47.25,0.53 27.95,0 55.52,-0.53 82.69,-1.45 18.1,-0.65 36.08,-1.44 53.8,-2.62 47.64,-2.76 93.96,-6.96 138.59,-12.6 18.24,-2.24 36.22,-4.72 53.8,-7.61 45.53,-6.83 88.98,-15.22 129.92,-24.94 18.51,-4.2 36.35,-8.79 53.81,-13.64 37.14,-10.37 71.79,-21.65 103.68,-34 18.91,-7.35 36.88,-14.96 53.81,-22.96 37.02,-17.33 68.92,-36.1 95.16,-56.17 18.89,-14.45 34.91,-29.53 47.52,-45.15l1.69 -2.1c21.53,-27.29 33.07,-56.04 33.07,-85.7z"/>
   <path class="fil4" d="M2873.19 563.69c0,29.65 -11.54,58.4 -33.07,85.7 -101.7,128.88 -427.84,223.24 -814.47,223.24 -386.65,0 -712.76,-94.37 -814.49,-223.24 -21.52,-27.29 -33.07,-56.04 -33.07,-85.7 0,-170.75 379.41,-309.08 847.56,-309.08 468.13,0 847.54,138.33 847.54,309.08z"/>
   <path class="fil5" d="M2775.24 548.87c0,21.71 -10.11,42.77 -28.98,62.76 -89.16,94.39 -375.07,163.5 -713.98,163.5 -338.93,0 -624.83,-69.11 -713.99,-163.5 -18.86,-19.99 -28.99,-41.04 -28.99,-62.76 0,-125.05 332.6,-226.34 742.98,-226.34 410.37,0 742.96,101.3 742.96,226.34z"/>
   <path class="fil6" d="M2775.28 548.86c0,21.78 -10.1,42.78 -28.99,62.74 -20.36,21.52 -50.93,41.72 -90.03,60.1 26.11,-14.69 47.12,-30.44 62.2,-46.97 18.25,-19.95 28.08,-40.96 28.08,-62.74 0,-125.07 -322.72,-226.39 -720.89,-226.39 -398.19,0 -720.9,101.32 -720.9,226.39 0,21.78 9.83,42.78 28.07,62.74l2.76 2.89c-6.43,-5.25 -12.21,-10.64 -17.32,-16.01 -18.77,-19.96 -29,-40.96 -29,-62.74 0,-125.08 332.69,-226.4 743.07,-226.4 410.27,0 742.95,101.32 742.95,226.4zm-701.8 374.83c0,0 -4.05,5.3 -6.93,13.23 -3.2,7.92 -5.14,18.5 -5.18,29.08 0.02,10.57 1.92,21.15 5.15,29.07 2.88,7.92 6.96,13.21 6.96,13.21 0,0 4.07,-5.29 6.96,-13.21 3.23,-7.92 5.12,-18.5 5.15,-29.07 -0.05,-10.58 -1.98,-21.15 -5.19,-29.08 -2.88,-7.92 -6.92,-13.23 -6.92,-13.23zm97.33 -6.97c0,0 -4.05,6.48 -6.92,16.2 -3.2,9.72 -5.14,22.67 -5.19,35.63 0.02,12.96 1.93,25.91 5.16,35.63 2.88,9.72 6.95,16.2 6.95,16.2 0,0 4.07,-6.48 6.96,-16.2 3.24,-9.72 5.14,-22.67 5.15,-35.63 -0.04,-12.96 -1.96,-25.91 -5.18,-35.63 -2.89,-9.72 -6.93,-16.2 -6.93,-16.2zm83.04 -17.52c0,0 -4.07,6.82 -6.93,17.03 -3.22,10.24 -5.14,23.86 -5.17,37.5 0.01,13.64 1.91,27.28 5.15,37.5 2.87,10.22 6.96,17.04 6.96,17.04 0,0 4.07,-6.82 6.93,-17.04 3.24,-10.22 5.14,-23.86 5.15,-37.5 -0.03,-13.64 -1.96,-27.27 -5.17,-37.5 -2.87,-10.21 -6.91,-17.03 -6.91,-17.03zm104.17 0c0,0 -4.04,5.49 -6.91,13.73 -3.21,8.24 -5.15,19.23 -5.19,30.22 0.01,10.99 1.92,21.97 5.15,30.2 2.88,8.25 6.94,13.74 6.94,13.74 0,0 4.09,-5.49 6.96,-13.74 3.23,-8.24 5.14,-19.22 5.15,-30.2 -0.04,-10.99 -1.96,-21.98 -5.19,-30.22 -2.86,-8.24 -6.92,-13.73 -6.92,-13.73zm105.96 -23.77c0,0 -4.05,6.03 -6.92,15.09 -3.22,9.04 -5.14,21.11 -5.19,33.17 0.01,12.07 1.92,24.14 5.15,33.18 2.89,9.06 6.96,15.09 6.96,15.09 0,0 4.07,-6.03 6.96,-15.09 3.24,-9.04 5.14,-21.11 5.15,-33.18 -0.03,-12.06 -1.96,-24.13 -5.19,-33.17 -2.88,-9.06 -6.92,-15.09 -6.92,-15.09zm90.91 -24.79c0,0 -4.04,6.06 -6.92,15.17 -3.22,9.1 -5.15,21.24 -5.19,33.38 0.01,12.14 1.92,24.27 5.16,33.37 2.86,9.09 6.94,15.17 6.94,15.17 0,0 4.08,-6.08 6.94,-15.17 3.24,-9.1 5.14,-21.24 5.15,-33.37 -0.04,-12.14 -1.96,-24.28 -5.18,-33.38 -2.87,-9.11 -6.92,-15.17 -6.92,-15.17zm111.91 -60.15c0,0 -4.05,7.89 -6.91,19.72 -3.23,11.83 -5.15,27.62 -5.19,43.39 0.01,15.78 1.91,31.55 5.15,43.4 2.88,11.83 6.95,19.72 6.95,19.72 0,0 4.08,-7.89 6.96,-19.72 3.23,-11.85 5.14,-27.62 5.15,-43.4 -0.05,-15.77 -1.98,-31.56 -5.19,-43.39 -2.87,-11.83 -6.92,-19.72 -6.92,-19.72zm92.88 -46.91c0,0 -4.05,7.38 -6.92,18.45 -3.22,11.06 -5.12,25.82 -5.16,40.58 0.02,14.74 1.93,29.5 5.18,40.57 2.89,11.05 6.96,18.42 6.96,18.42 0,0 4.07,-7.37 6.95,-18.44 3.22,-11.06 5.12,-25.82 5.14,-40.56 -0.05,-14.76 -1.99,-29.5 -5.2,-40.57 -2.89,-11.07 -6.93,-18.45 -6.93,-18.45zm-784.17 177.3c0,0 4.05,5.29 6.92,13.22 3.22,7.94 5.13,18.5 5.18,29.07 -0.02,10.58 -1.92,21.15 -5.15,29.09 -2.87,7.92 -6.94,13.21 -6.94,13.21 0,0 -4.08,-5.29 -6.96,-13.21 -3.22,-7.94 -5.13,-18.51 -5.15,-29.09 0.03,-10.57 1.97,-21.14 5.19,-29.07 2.86,-7.92 6.92,-13.22 6.92,-13.22zm-97.34 -6.97c0,0 4.06,6.48 6.92,16.19 3.22,9.72 5.15,22.68 5.19,35.65 -0.01,12.96 -1.92,25.91 -5.15,35.63 -2.88,9.72 -6.96,16.2 -6.96,16.2 0,0 -4.07,-6.48 -6.94,-16.2 -3.24,-9.72 -5.13,-22.67 -5.15,-35.63 0.03,-12.96 1.96,-25.93 5.18,-35.65 2.87,-9.71 6.91,-16.19 6.91,-16.19zm-83.01 -17.53c0,0 4.04,6.82 6.91,17.04 3.23,10.24 5.15,23.86 5.19,37.5 -0.02,13.64 -1.91,27.28 -5.15,37.5 -2.88,10.22 -6.94,17.04 -6.94,17.04 0,0 -4.09,-6.82 -6.96,-17.04 -3.22,-10.22 -5.13,-23.86 -5.15,-37.5 0.04,-13.64 1.96,-27.27 5.17,-37.5 2.88,-10.22 6.94,-17.04 6.94,-17.04zm-104.2 0c0,0 4.05,5.5 6.92,13.74 3.22,8.24 5.15,19.23 5.19,30.2 -0.01,10.99 -1.92,21.98 -5.15,30.22 -2.89,8.24 -6.96,13.73 -6.96,13.73 0,0 -4.08,-5.49 -6.96,-13.73 -3.23,-8.24 -5.14,-19.23 -5.15,-30.22 0.05,-10.98 1.97,-21.97 5.19,-30.2 2.88,-8.24 6.92,-13.74 6.92,-13.74zm-105.94 -23.75c0,0 4.05,6.03 6.91,15.07 3.22,9.06 5.15,21.13 5.19,33.18 -0.02,12.08 -1.91,24.13 -5.15,33.19 -2.88,9.04 -6.94,15.07 -6.94,15.07 0,0 -4.08,-6.03 -6.96,-15.07 -3.23,-9.06 -5.13,-21.11 -5.15,-33.19 0.03,-12.05 1.96,-24.12 5.17,-33.18 2.88,-9.04 6.93,-15.07 6.93,-15.07zm-90.91 -24.8c0,0 4.05,6.07 6.92,15.17 3.21,9.11 5.13,21.24 5.19,33.38 -0.03,12.14 -1.92,24.28 -5.15,33.39 -2.89,9.09 -6.96,15.17 -6.96,15.17 0,0 -4.08,-6.08 -6.96,-15.17 -3.23,-9.11 -5.13,-21.24 -5.15,-33.39 0.03,-12.13 1.97,-24.27 5.19,-33.38 2.87,-9.1 6.92,-15.17 6.92,-15.17zm-111.92 -60.15c0,0 4.06,7.89 6.92,19.72 3.21,11.83 5.15,27.61 5.19,43.39 -0.01,15.78 -1.92,31.55 -5.15,43.4 -2.89,11.83 -6.96,19.72 -6.96,19.72 0,0 -4.07,-7.89 -6.94,-19.72 -3.23,-11.85 -5.14,-27.62 -5.15,-43.4 0.04,-15.78 1.96,-31.56 5.18,-43.39 2.87,-11.83 6.92,-19.72 6.92,-19.72zm-92.87 -46.91c0,0 4.05,7.39 6.91,18.45 3.22,11.07 5.14,25.82 5.18,40.57 -0.02,14.76 -1.93,29.51 -5.18,40.57 -2.89,11.06 -6.96,18.44 -6.96,18.44 0,0 -4.07,-7.37 -6.95,-18.44 -3.23,-11.06 -5.13,-25.82 -5.13,-40.58 0.05,-14.75 1.99,-29.5 5.2,-40.56 2.88,-11.06 6.93,-18.45 6.93,-18.45zm1547.03 -65.49c0,0 -4.07,6.54 -6.92,16.35 -3.23,9.8 -5.15,22.88 -5.19,35.96 0.02,13.08 1.91,26.15 5.15,35.96 2.87,9.81 6.96,16.34 6.96,16.34 0,0 4.07,-6.53 6.94,-16.34 3.23,-9.81 5.12,-22.88 5.15,-35.96 -0.03,-13.07 -1.97,-26.16 -5.19,-35.96 -2.86,-9.81 -6.91,-16.35 -6.91,-16.35z"/>
   <path class="fil7" d="M2848.19 3505.15c0,233.16 -368.27,422.17 -822.55,422.17 -454.28,0 -822.54,-189.01 -822.54,-422.17 0,-66.51 30.01,-129.42 83.4,-185.38 2.56,3.57 5.15,7.12 7.77,10.65 85.95,114.98 189.62,195.88 303.84,259.95l0 0.15c128.46,72.34 270.2,124.03 414.87,180.44l0.1 0.04 -0.1 0.04c1.01,0.36 2.05,0.74 3.09,1.13l0 0 0.13 0.05 0 0 0.13 0.05 0 0 0.26 0.1 0.01 0 0.12 0.05 0.01 0 0.12 0.05 0.01 0 0.12 0.05 0.01 0 0.77 0.3 0.02 0 0.63 0.25 0.02 0.01 0.11 0.05 0.03 0.01 0.11 0.04 0.02 0.01 0.11 0.04 0.03 0.01 0.1 0.04 0.03 0.01 0.11 0.04 0.02 0.01 2.18 0.89 2.61 0.95 0.02 0.01 0.21 0.08 0.03 0.01 0.2 0.08 0.03 0.01 0.2 0.08 0.03 0.01c3.79,1.46 7.14,2.74 10.11,3.93 2.64,-1.14 5.88,-2.37 9.52,-3.75l0.02 -0 0.21 -0.08 0.02 -0 0.21 -0.08 0.02 -0.01 0.21 -0.08 0.02 -0.01 3.1 -1.13c44.17,-16.59 88.42,-33.15 132.33,-50.28l0.02 -0 6.91 -2.71 0.02 -0 6.91 -2.71 0.02 -0.01 6.9 -2.73 0.02 -0.01 1.3 -0.52c96.34,-38.13 190.67,-79.55 278.49,-130.7 78.42,-45.72 151.52,-99.24 216.2,-165.15 12.78,-13.05 25.2,-26.56 37.24,-40.55l0.07 -0.08 0.31 -0.36 1.3 -1.52 1.3 -1.52 0.06 -0.07 2.16 -2.54 0.38 -0.44 1.29 -1.53 0.09 -0.11 2.49 -2.97 1.28 -1.55c3.85,-4.64 7.65,-9.33 11.41,-14.09l1.26 -1.59 1.25 -1.59 1.25 -1.59 1.24 -1.6 0.78 -1 0.46 -0.6c3.72,-4.81 7.42,-9.68 11.07,-14.6 47.75,53.48 74.4,112.97 74.4,175.65z"/>
   <path class="fil6" d="M2860.24 3183.94c-3.63,7.83 -7.4,15.62 -11.29,23.38 -19.87,39.62 -43.11,77.84 -69.11,113.93 -25.68,35.46 -53.21,68.04 -82.73,98.17 -64.68,65.91 -137.78,119.43 -216.2,165.15 -134.43,78.29 -284.13,133.8 -432.91,189.61 -5.21,1.99 -9.79,3.68 -13.32,5.2 -3.81,-1.52 -8.26,-3.2 -13.44,-5.2 -2.77,-1.06 -5.52,-2.15 -8.27,-3.22 -144.66,-56.41 -286.41,-108.1 -414.87,-180.44l0 -0.15c-114.22,-64.06 -217.89,-144.97 -303.84,-259.95 -8.87,-11.94 -17.42,-24.18 -25.68,-36.54 -24.92,-37.16 -46.77,-75.99 -65.12,-116.03 183.26,5.6 474.61,-59.47 437.84,-163.21 -32.72,-92.97 -365.01,-163.32 -501.71,-188.69 -6.22,-1.12 -11.92,-2.12 -17.21,-3l0.01 -0.21c4.28,-90.66 29.5,-180.88 79.82,-265.76 137.62,-231.5 458.13,-263.48 673.75,-123.54 39.15,25.54 76,57.79 103.06,96.33l0 0.14c11.32,15.91 20.79,32.89 28.14,50.93 1.38,-3.37 2.76,-6.72 4.29,-10.1 25.99,-57.19 74.61,-103.07 126.91,-137.3 87.93,-57.04 193.28,-85.49 296.66,-83.49l0.46 0c6.42,0.14 12.69,0.46 19.11,0.75 1.52,0 3.06,0.16 4.58,0.31 4.14,0.31 8.11,0.62 12.24,1.07 4.59,0.32 9.17,0.77 13.77,1.39 5.5,0.6 10.85,1.37 16.36,2.12 8.86,1.23 17.58,2.77 26.15,4.75 4.72,0.9 9.63,1.83 14.22,3.06l1.08 0.29c5.79,1.23 11.45,2.75 17.12,4.29 20.03,5.67 39.6,12.4 58.71,20.8 5.21,2.14 10.39,4.58 15.6,7.03 5.2,2.45 10.41,5.07 15.45,7.82 5.2,2.59 10.25,5.5 15.28,8.41 6.26,3.51 12.38,7.33 18.35,11.3 5.05,3.22 10.1,6.59 14.99,10.24 5.81,3.99 11.47,8.27 16.98,12.7l0.61 0.47c4.73,3.82 9.34,7.63 13.76,11.62 6.28,5.5 12.54,11.15 18.51,17.12l0.6 0.46c14.68,11.47 28.76,24.16 42.06,37.77 4.44,4.58 8.72,9.18 13,13.92 16.98,19.11 32.43,40.05 46.19,63.16 20.63,34.71 37,70.64 49.23,107.04 4.14,12.23 7.82,24.46 11,36.7 1.54,6.12 3.06,12.38 4.6,18.65 2.91,12.4 5.19,24.77 7.19,37.16 1.75,10.93 3.15,21.97 4.29,33.04 -4.6,0.78 -9.52,1.64 -14.8,2.59 -136.7,25.38 -468.99,95.72 -501.71,188.69 -36.86,103.99 255.98,169.13 439.16,163.18l11.09 6.12z"/>
   <path class="fil5" d="M1803.51 2603.02c-10.54,0 -21.13,-3.45 -29.97,-10.58 -32.67,-26.39 -71.48,-43.77 -115.3,-51.69 -25.96,-4.7 -43.19,-29.53 -38.51,-55.46 4.69,-25.96 29.48,-43.24 55.46,-38.5 58.94,10.64 113.68,35.31 158.32,71.36 20.53,16.55 23.74,46.61 7.17,67.14 -9.42,11.68 -23.26,17.73 -37.17,17.73z"/>
   <path class="fil5" d="M1262.81 2807.23c-2.94,0 -5.91,-0.28 -8.91,-0.83 -25.9,-4.89 -42.95,-29.86 -38.07,-55.79 30.03,-159.24 158.46,-279.02 327.19,-305.13 26.06,-4.02 50.46,13.81 54.49,39.87 4.03,26.08 -13.82,50.47 -39.87,54.49 -97.38,15.06 -220.73,83.94 -247.98,228.47 -4.33,22.93 -24.37,38.91 -46.86,38.91z"/>
   <path class="fil3" d="M2779.76 3321.28c-81.97,113.8 -184.78,196.71 -298.89,263.23 -134.33,78.29 -284.09,133.84 -432.89,189.72 -5.27,1.9 -9.71,3.65 -13.36,5.07 -3.83,-1.42 -8.12,-3.17 -13.39,-5.07 -2.7,-1.11 -5.56,-2.24 -8.27,-3.19 147.85,-55.54 296.5,-110.77 429.87,-188.59 114.11,-66.53 216.91,-149.44 298.88,-263.23 31.87,-44.28 59.55,-91.65 82.15,-141.02 8.62,0.02 17.06,-0.11 25.27,-0.37l11.09 6.12c-22.29,48.04 -49.39,94.15 -80.47,137.34zm151.1 -467.91c0.03,-10.22 -0.19,-20.43 -0.67,-30.64l-3.7 0.62c-8.09,-79.9 -32.5,-158.67 -76.4,-232.56 -27.37,-46 -61.9,-84.19 -101.22,-114.92l-0.47 -0.47c-83.07,-82.28 -196.86,-123.19 -313.36,-125.42 102.8,9.55 201.32,50.14 275.32,123.34l0.5 0.47c39.29,30.73 73.82,68.91 101.22,114.92 45.51,76.64 70.09,158.53 77.22,241.47 -147.44,28.38 -448.2,96.24 -479.31,184.46 -8.86,25 1.37,47.75 24.52,67.81 -4.7,-11.77 -5.29,-24.22 -0.88,-37.28 32.8,-97.08 379.2,-169.71 497.25,-191.8zm-1810.45 0c-0.03,-10.22 0.18,-20.43 0.67,-30.64 5.65,0.94 11.77,2 18.5,3.22 136.7,25.38 468.99,95.72 501.71,188.69 8.86,25 -1.37,47.75 -24.52,67.81 4.7,-11.77 5.29,-24.22 0.88,-37.28 -32.8,-97.08 -379.2,-169.71 -497.25,-191.8z"/>
   <path class="fil8" d="M1308.1 3149.67c0,0 149.08,0 168.2,-45.88 19.11,-45.88 -263.78,30.59 -168.2,45.88z"/>
   <path class="fil8" d="M1534.76 3075.48c0,14.59 -11.83,26.42 -26.42,26.42 -14.6,0 -26.45,-11.83 -26.45,-26.42 0,-14.59 11.84,-26.43 26.45,-26.43 14.59,0 26.42,11.84 26.42,26.43z"/>
   <path class="fil8" d="M2743.18 3149.67c0,0 -149.08,0 -168.21,-45.88 -19.11,-45.88 263.78,30.59 168.21,45.88z"/>
   <path class="fil8" d="M2516.52 3075.48c0,14.59 11.83,26.42 26.42,26.42 14.61,0 26.45,-11.83 26.45,-26.42 0,-14.59 -11.84,-26.43 -26.45,-26.43 -14.59,0 -26.42,11.84 -26.42,26.43z"/>
   <path class="fil5" d="M857.75 636.72c-17.78,-10.63 -297.02,-181.14 -127.46,-314.75 118.95,-93.74 158.75,-24.1 171.86,41.51 45.24,-51.55 115.07,-100.97 165.15,3.37 68.87,143.46 -180.84,270.81 -181.54,271.17 -9.19,4.84 -19.88,4 -28.02,-1.29zm-93.17 -271.16c-94.44,74.42 61.32,184.96 109.18,215.88 44.88,-25.53 181.73,-111.44 143.66,-190.74 -34.24,-71.35 -112.81,63.21 -113.03,63.6 -5.02,8.35 -14.3,13.81 -24.73,13.44 -15.27,-0.54 -27.22,-13.36 -26.68,-28.63 0.01,-0.41 6.67,-148.47 -88.4,-73.54zm-379.65 1142.91c-13.46,4.6 -246,81.92 -240.2,-83.24 3.85,-109.33 56.05,-108.68 99.73,-88.39 -4.28,-49.27 7.97,-102.75 89.5,-81.49 116.85,30.45 69.62,232.59 69.5,233.16 -2.33,9.78 -9.6,17.11 -18.53,19.96zm-184.89 -81.29c-2.56,72.55 111.19,45.65 152.63,33.48 6.94,-38.43 19.61,-138.12 -32.6,-151.73 -40.1,-10.45 -8.09,79.87 -8,80.12 3.17,9.19 1.41,19.78 -5.53,27.55 -10.18,11.38 -27.67,12.34 -39.05,2.16 -0.18,-0.16 -65.05,-60.12 -67.45,8.41zm549.47 693.85c-1,-0.03 -350.29,-27 -253.37,-227.33 65.99,-136.39 132.28,-91.15 172.79,-37.88 18.25,-66.18 59.51,-141.01 149.93,-69.32 124.62,98.83 -44.26,322.76 -44.74,323.41 -5.93,8 -15.36,11.87 -24.61,11.13zm-203.48 -203.26c-52.4,108.3 136.25,139.53 192.71,146.36 29.17,-42.53 114.62,-179.53 45.62,-234.25 -60.21,-47.75 -72.87,95.76 -73.66,105.62 -0.54,10.13 -6.61,19.6 -16.53,23.97 -14.02,6.16 -30.39,-0.2 -36.56,-14.21 -0.17,-0.37 -58.91,-136.36 -111.58,-27.48zm-126.62 801.52c-5.86,2.9 -223.62,109.94 -238.21,-50.75 -9.37,-103.35 38.88,-110.55 82.55,-97.34 -9.48,-45.94 -3.18,-96.86 76.79,-86.48 115.45,15 94.46,211.47 94.42,212.03 -0.87,10.08 -7.05,18.42 -15.55,22.53zm-183.11 -55.73c6,66.11 106.69,28.98 144.64,12.54 1.78,-37.76 1.12,-130.18 -47.46,-136.49 -35.66,-4.51 3.57,74.32 3.68,74.54 4.15,8.73 3.65,19.39 -2.27,27.88 -8.75,12.52 -26,15.58 -38.51,6.83 -0.18,-0.13 -65.67,-46.98 -60.08,14.7z"/>
   <path class="fil9" d="M872.86 613.49c0,0 -268.13,-157.28 -125.43,-269.74 142.72,-112.46 133.2,96.32 133.2,96.32 0,0 104.65,-180.22 161.73,-61.31 57.09,118.91 -169.5,234.73 -169.5,234.73zm-496.31 868.63c0,0 -208.71,73.3 -204.16,-55.91 4.55,-129.22 113.55,-28.05 113.55,-28.05 0,0 -49.75,-139.7 41.08,-116.02 90.83,23.67 49.53,199.98 49.53,199.98zm375.33 611.29c0,0 -309.92,-24.14 -230.79,-187.68 79.14,-163.56 161.91,28.35 161.91,28.35 0,0 15.26,-207.86 118.61,-125.9 103.35,81.96 -49.73,285.23 -49.73,285.23zm-344.47 600.95c0,0 -187.57,93.75 -198.65,-28.32 -11.08,-122.06 103.46,-39.86 103.46,-39.86 0,0 -63.4,-125.48 24.84,-114.01 88.24,11.48 70.35,182.19 70.35,182.19z"/>
   <path class="fil2" d="M598.62 2865.22c0,14.39 -5.89,27.51 -15.43,37.05 -9.46,9.55 -22.59,15.43 -37.06,15.43 -14.38,0 -27.48,-5.88 -37.01,-15.38l-0.09 -0.09c-9.5,-9.53 -15.38,-22.64 -15.38,-37.01 0,-14.47 5.88,-27.6 15.38,-37.1 9.58,-9.49 22.7,-15.38 37.09,-15.38 14.47,0 27.6,5.88 37.1,15.38 9.5,9.5 15.38,22.63 15.38,37.1zm-48.05 4.38c1.09,-1.05 1.76,-2.6 1.76,-4.38 0,-1.72 -0.7,-3.29 -1.81,-4.4 -1.1,-1.1 -2.68,-1.8 -4.39,-1.8 -1.77,0 -3.34,0.67 -4.38,1.72 -1.1,1.19 -1.81,2.77 -1.81,4.48 0,1.78 0.67,3.33 1.72,4.38l0.09 0.09c1.05,1.05 2.61,1.72 4.38,1.72 1.72,0 3.29,-0.7 4.44,-1.8zm77.39 -1507.81c0,14.47 -5.88,27.6 -15.38,37.1 -9.5,9.5 -22.63,15.38 -37.1,15.38 -14.42,0 -27.52,-5.9 -37.02,-15.38 -9.59,-9.5 -15.47,-22.63 -15.47,-37.1 0,-14.4 5.89,-27.52 15.42,-37.05 9.46,-9.54 22.59,-15.42 37.06,-15.42 14.39,0 27.48,5.88 37.01,15.38l0.09 0.09c9.5,9.52 15.38,22.63 15.38,37.01zm-48.09 4.4c1.1,-1.1 1.81,-2.68 1.81,-4.4 0,-1.77 -0.67,-3.34 -1.72,-4.38l-0.09 -0.09c-1.05,-1.05 -2.61,-1.72 -4.39,-1.72 -1.72,0 -3.29,0.7 -4.4,1.8 -1.14,1.05 -1.8,2.61 -1.8,4.38 0,1.72 0.7,3.29 1.8,4.4 1.06,1.12 2.65,1.8 4.4,1.8 1.72,0 3.29,-0.7 4.39,-1.8zm-277.61 533.91c0,14.36 -5.88,27.47 -15.38,37.01l-0.09 0.09c-9.53,9.5 -22.64,15.38 -37.01,15.38 -14.47,0 -27.6,-5.88 -37.1,-15.38 -9.49,-9.59 -15.38,-22.71 -15.38,-37.09 0,-14.4 5.89,-27.52 15.42,-37.05 9.46,-9.55 22.59,-15.43 37.06,-15.43 14.37,0 27.48,5.88 37.01,15.38l0.09 0.09c9.5,9.52 15.38,22.63 15.38,37.01zm-48 4.38c1.05,-1.05 1.72,-2.6 1.72,-4.38 0,-1.77 -0.67,-3.34 -1.72,-4.38l-0.09 -0.09c-1.05,-1.05 -2.6,-1.72 -4.38,-1.72 -1.72,0 -3.29,0.7 -4.39,1.8 -1.14,1.05 -1.81,2.61 -1.81,4.38 0,1.78 0.67,3.33 1.72,4.38 1.19,1.1 2.76,1.8 4.48,1.8 1.78,0 3.34,-0.67 4.38,-1.72l0.09 -0.09zm1043.35 -1694.62c0,14.37 -5.88,27.47 -15.38,37.01l-0.09 0.09c-9.53,9.5 -22.64,15.38 -37,15.38 -14.38,0 -27.49,-5.88 -37.01,-15.38l-0.09 -0.09c-9.5,-9.53 -15.38,-22.64 -15.38,-37.01 0,-14.47 5.88,-27.6 15.38,-37.1 9.58,-9.49 22.7,-15.38 37.09,-15.38 14.36,0 27.47,5.88 37,15.38l0.09 0.09c9.5,9.52 15.38,22.63 15.38,37.01zm-48 4.38c1.05,-1.05 1.72,-2.6 1.72,-4.38 0,-1.78 -0.67,-3.34 -1.72,-4.39l-0.09 -0.09c-1.05,-1.05 -2.6,-1.72 -4.38,-1.72 -1.77,0 -3.34,0.67 -4.38,1.72 -1.1,1.19 -1.81,2.77 -1.81,4.48 0,1.78 0.67,3.34 1.72,4.38l0.09 0.09c1.05,1.05 2.61,1.72 4.38,1.72 1.78,0 3.33,-0.67 4.38,-1.72l0.09 -0.09zm-918.02 1977.24c0,14.37 -5.88,27.48 -15.38,37.01l-0.09 0.09c-9.53,9.5 -22.64,15.38 -37,15.38 -14.38,0 -27.48,-5.88 -37.01,-15.38l-0.09 -0.09c-9.5,-9.53 -15.38,-22.64 -15.38,-37.01 0,-14.37 5.88,-27.48 15.38,-37l0.09 -0.09c9.52,-9.5 22.63,-15.38 37.01,-15.38 14.36,0 27.47,5.88 37,15.38l0.09 0.09c9.5,9.52 15.38,22.63 15.38,37zm-48 4.38c1.05,-1.05 1.72,-2.6 1.72,-4.38 0,-1.77 -0.67,-3.33 -1.72,-4.38l-0.09 -0.09c-1.05,-1.05 -2.6,-1.72 -4.38,-1.72 -1.77,0 -3.34,0.67 -4.38,1.72l-0.09 0.09c-1.05,1.05 -1.72,2.61 -1.72,4.38 0,1.78 0.67,3.34 1.72,4.38l0.09 0.09c1.05,1.05 2.61,1.72 4.38,1.72 1.78,0 3.33,-0.67 4.38,-1.72l0.09 -0.09zm315.03 286.22c0,14.39 -5.89,27.51 -15.43,37.05 -9.46,9.54 -22.59,15.42 -37.06,15.42 -14.38,0 -27.48,-5.88 -37.01,-15.38l-0.09 -0.09c-9.5,-9.53 -15.38,-22.64 -15.38,-37.01 0,-14.47 5.88,-27.6 15.38,-37.1 9.58,-9.49 22.7,-15.38 37.09,-15.38 14.47,0 27.6,5.88 37.1,15.38 9.5,9.5 15.38,22.63 15.38,37.1zm-48.05 4.38c1.09,-1.05 1.76,-2.6 1.76,-4.38 0,-1.72 -0.7,-3.29 -1.81,-4.39 -1.1,-1.1 -2.68,-1.81 -4.39,-1.81 -1.77,0 -3.34,0.67 -4.38,1.72 -1.1,1.19 -1.81,2.77 -1.81,4.48 0,1.78 0.67,3.34 1.72,4.38l0.09 0.09c1.05,1.05 2.61,1.72 4.38,1.72 1.72,0 3.29,-0.7 4.44,-1.81zm207.51 -1603.14c0,14.47 -5.88,27.6 -15.38,37.1 -9.5,9.5 -22.63,15.38 -37.1,15.38 -14.48,0 -27.6,-5.88 -37.1,-15.38 -9.5,-9.5 -15.38,-22.63 -15.38,-37.1 0,-14.4 5.89,-27.52 15.43,-37.05 9.46,-9.55 22.58,-15.43 37.06,-15.43 14.47,0 27.6,5.88 37.1,15.38 9.49,9.58 15.38,22.7 15.38,37.09zm-48.09 4.4c1.1,-1.1 1.8,-2.68 1.8,-4.4 0,-1.77 -0.67,-3.33 -1.72,-4.38 -1.19,-1.1 -2.77,-1.8 -4.48,-1.8 -1.72,0 -3.29,0.7 -4.4,1.8 -1.13,1.05 -1.8,2.61 -1.8,4.38 0,1.72 0.7,3.29 1.8,4.4 1.1,1.1 2.68,1.8 4.4,1.8 1.72,0 3.29,-0.7 4.4,-1.8z"/>
   <path class="fil8" d="M575.48 2865.22c0,16.2 -13.13,29.33 -29.35,29.33 -16.2,0 -29.33,-13.13 -29.33,-29.33 0,-16.2 13.13,-29.34 29.33,-29.34 16.21,0 29.35,13.13 29.35,29.34zm29.34 -1503.42c0,16.2 -13.13,29.33 -29.34,29.33 -16.21,0 -29.35,-13.14 -29.35,-29.33 0,-16.21 13.13,-29.34 29.35,-29.34 16.2,0 29.34,13.12 29.34,29.34zm-325.7 538.3c0,16.2 -13.13,29.33 -29.33,29.33 -16.2,0 -29.34,-13.13 -29.34,-29.33 0,-16.2 13.13,-29.33 29.34,-29.33 16.2,0 29.33,13.13 29.33,29.33zm995.36 -1690.23c0,16.2 -13.12,29.33 -29.33,29.33 -16.2,0 -29.34,-13.13 -29.34,-29.33 0,-16.21 13.13,-29.35 29.34,-29.35 16.21,0 29.33,13.14 29.33,29.35zm-966.02 1981.62c0,16.2 -13.13,29.34 -29.34,29.34 -16.2,0 -29.33,-13.13 -29.33,-29.34 0,-16.2 13.13,-29.33 29.33,-29.33 16.2,0 29.34,13.13 29.34,29.33zm267.03 290.61c0,16.2 -13.13,29.33 -29.35,29.33 -16.2,0 -29.33,-13.13 -29.33,-29.33 0,-16.2 13.13,-29.34 29.33,-29.34 16.21,0 29.35,13.13 29.35,29.34zm159.46 -1598.75c0,16.21 -13.14,29.34 -29.33,29.34 -16.21,0 -29.35,-13.13 -29.35,-29.34 0,-16.2 13.14,-29.34 29.35,-29.34 16.2,0 29.33,13.13 29.33,29.34z"/>
   <path class="fil5" d="M3463 2835.52c8.44,-15.09 128.56,-224.51 234.16,-98.75 70.26,83.68 31.26,118.21 -14.73,132.45 36.18,33.67 62.81,81.57 -12.24,120.5 -107.41,55.73 -207.29,-125.93 -207.57,-126.43 -5.02,-8.96 -4.52,-19.52 0.37,-27.77zm191.64 -63.18c-46.65,-55.54 -113.02,40.49 -135.61,77.28 20.78,33.36 78.21,115.55 125.78,90.86 33.15,-17.19 -33.85,-56.88 -46.05,-63.81 -9.55,-4.4 -16.19,-14.05 -16.19,-25.24 0,-15.32 12.44,-27.77 27.77,-27.77 0.25,0 88.33,1.14 44.3,-51.32zm-511.49 -2044.14c-17.15,-19.7 -224.61,-263.98 -24.3,-338.27 141.87,-52.64 158.39,25.85 150.75,92.37 58.9,-35.22 140.63,-60.9 156.26,53.88 21.45,157.53 -255.51,202.2 -256.29,202.33 -10.37,1.73 -20.37,-2.56 -26.42,-10.31zm-5 -286.21c-113,41.91 1.55,195.02 37.53,238.97 50.28,-10.39 207.2,-49.99 195.3,-137.41 -10.68,-78.38 -126.77,25.52 -127.1,25.8 -7.41,6.45 -18.03,8.75 -27.88,5.09 -14.31,-5.32 -21.59,-21.26 -16.27,-35.57 0.14,-0.38 51.94,-139 -61.59,-96.88zm276.37 995.1c-8.73,-21.67 -126.57,-323.33 88.02,-327.76 151.21,-3.11 141.03,76.44 111.98,136.74 67.24,-13.82 152.77,-11.12 129.95,102.01 -31.51,156.06 -307.59,107.22 -308.38,107.09 -10.29,-1.72 -18.29,-8.9 -21.56,-18.07zm89.11 -272.45c-120.56,2.49 -62.55,184.77 -42.99,238.13 51.05,6.68 212.18,20.72 229.59,-65.55 15.73,-77.98 -127.78,-17.67 -128.17,-17.5 -9.24,3.75 -20.21,2.47 -28.41,-4.34 -11.74,-9.76 -13.35,-27.2 -3.59,-38.94 0.26,-0.32 94.79,-114.29 -26.44,-111.8zm68.62 1338.5c-2.65,-22.43 -25.29,-244.11 125.4,-207.27 101.16,24.72 92.07,72.87 65.27,109.92 46.55,6.08 92.57,28.64 57,100.51 -51.47,104 -231.09,20.6 -231.61,20.37 -9.6,-4.43 -15.46,-13.65 -16.06,-23.53zm112.39 -153.46c-64.63,-15.81 -62.11,91.51 -58.85,132.72 34.74,13.89 122.55,43.65 144.44,-0.6 15.69,-31.69 -64.72,-21.64 -70.78,-20.84 -9.86,1.5 -20.2,-2.42 -26.51,-11.01 -9.04,-12.33 -6.36,-29.68 5.97,-38.72 0.17,-0.13 65.69,-46.9 5.73,-61.55z"/>
   <path class="fil9" d="M3486.83 2849.74c0,0 105.93,-194.2 189.07,-95.18 83.14,99.02 -65.56,96.87 -65.56,96.87 0,0 130.5,70.45 47.17,113.67 -83.31,43.23 -170.68,-115.36 -170.68,-115.36zm-321.81 -2138.55c0,0 -206.88,-232.04 -36.52,-295.23 170.34,-63.2 97.16,132.57 97.16,132.57 0,0 154.96,-139.37 172.76,-8.67 17.8,130.69 -233.4,171.32 -233.4,171.32zm275.62 716.65c0,0 -119.21,-287.09 62.45,-290.84 181.67,-3.75 48.26,157.14 48.26,157.14 0,0 192.11,-80.76 166.01,48.53 -26.1,129.3 -276.71,85.18 -276.71,85.18zm159.28 1073.68c0,0 -27.82,-207.85 91.23,-178.73 119.06,29.1 4.14,110.8 4.14,110.8 0,0 139.26,-19.28 99.79,60.47 -39.47,79.74 -195.17,7.46 -195.17,7.46z"/>
   <path class="fil2" d="M3900.83 1912.11c-3.07,14.14 -11.69,25.73 -23.03,32.98 -11.29,7.19 -25.35,10.11 -39.46,7 -14.11,-3.11 -25.66,-11.7 -32.87,-22.99 -6.76,-10.57 -9.72,-23.56 -7.52,-36.76 0.18,-1.88 0.59,-3.71 1.2,-5.43 3.56,-12.87 11.73,-23.4 22.3,-30.15 10.57,-6.73 23.55,-9.71 36.75,-7.51 1.49,0.14 2.94,0.43 4.34,0.84 13.36,3.41 24.3,11.77 31.25,22.66 7.18,11.25 10.1,25.25 7.05,39.37zm-47.8 -5.89c1.28,-0.82 2.28,-2.19 2.64,-3.86l0.09 -0.1c0.37,-1.69 0.01,-3.39 -0.85,-4.74 -0.82,-1.29 -2.18,-2.29 -3.84,-2.65l-0.11 -0.09c-1.68,-0.37 -3.4,-0.02 -4.74,0.84 -1.3,0.83 -2.32,2.19 -2.71,3.83l-0.02 0.12c-0.37,1.69 -0.01,3.4 0.85,4.75 0.85,1.35 2.25,2.37 3.95,2.74 1.69,0.37 3.39,0.01 4.75,-0.85zm38.28 -376.63c-3.5,13.09 -11.75,23.8 -22.44,30.62 -11.34,7.23 -25.37,10.16 -39.37,7.08 -14.14,-3.11 -25.72,-11.72 -32.97,-23.07 -7.22,-11.29 -10.11,-25.35 -7,-39.48 3.11,-14.09 11.63,-25.61 22.91,-32.82 11.29,-7.29 25.36,-10.21 39.43,-7.13l2.35 0.64c13.09,3.5 23.79,11.74 30.62,22.43 7.23,11.34 10.16,25.37 7.08,39.37l-0.63 2.35zm-47.21 -8.26c1.13,-0.72 2.04,-1.81 2.51,-3.17l0.13 -0.68c0.39,-1.8 0.08,-3.53 -0.77,-4.84 -0.72,-1.13 -1.81,-2.03 -3.17,-2.51l-0.68 -0.13c-1.76,-0.38 -3.46,-0.06 -4.75,0.77 -1.42,0.84 -2.45,2.24 -2.82,3.94 -0.37,1.69 -0.01,3.4 0.85,4.75 0.82,1.28 2.19,2.28 3.85,2.65 1.8,0.4 3.54,0.07 4.84,-0.77zm-292.25 1138.87c-0.18,1.89 -0.59,3.72 -1.19,5.46 -3.58,12.91 -11.73,23.44 -22.23,30.16l-1.78 1.04c-10.24,5.99 -22.57,8.56 -35.05,6.47 -1.88,-0.17 -3.71,-0.59 -5.43,-1.19 -12.89,-3.56 -23.43,-11.75 -30.17,-22.31 -7.23,-11.34 -10.16,-25.38 -7.08,-39.38 3.11,-14.14 11.72,-25.73 23.07,-32.97 11.28,-7.18 25.35,-10.11 39.48,-7 14.1,3.11 25.65,11.69 32.87,22.99 6.74,10.55 9.72,23.53 7.52,36.73zm-48.36 -3.26c1.36,-0.85 2.38,-2.19 2.78,-3.77l0.04 -0.18c0.37,-1.69 0.01,-3.39 -0.85,-4.75 -0.85,-1.33 -2.25,-2.37 -3.95,-2.74 -1.68,-0.37 -3.4,-0.01 -4.75,0.86 -1.28,0.82 -2.28,2.18 -2.65,3.85 -0.39,1.81 -0.08,3.54 0.77,4.86 0.82,1.29 2.15,2.3 3.77,2.69l0.2 0.05c1.44,0.32 2.9,0.11 4.13,-0.51l0.51 -0.34zm-172.75 -1789.58c-3.07,14.15 -11.69,25.73 -23.03,32.97 -11.28,7.2 -25.33,10.11 -39.46,7 -14.09,-3.1 -25.62,-11.65 -32.83,-22.91 -7.29,-11.3 -10.21,-25.37 -7.13,-39.43l0.59 -2.2c5.86,-22.93 22.54,-34.99 40.97,-38.01 6.88,-1.13 14.05,-0.87 20.89,0.63 6.87,1.51 13.49,4.3 19.28,8.24l1.63 1.23c14.9,10.94 24.17,29.13 19.1,52.48zm-47.81 -5.9c1.28,-0.82 2.28,-2.18 2.65,-3.85l0.09 -0.1c0.55,-2.49 -0.03,-4.32 -1.14,-5.36l-0.56 -0.37c-0.93,-0.63 -2.04,-1.1 -3.18,-1.35 -1.15,-0.25 -2.39,-0.3 -3.53,-0.11 -1.47,0.23 -2.9,1.39 -3.63,3.63l-0.15 0.79c-0.38,1.76 -0.07,3.46 0.77,4.76 0.85,1.42 2.25,2.45 3.94,2.82 1.69,0.37 3.39,0.01 4.75,-0.85zm296.45 1350c-3.49,13.06 -11.71,23.74 -22.37,30.57 -10.91,7.05 -24.43,10 -38,7.42 -1.46,-0.22 -2.88,-0.58 -4.23,-1.05 -12.92,-3.57 -23.45,-11.73 -30.17,-22.23l-1.01 -1.73c-6.04,-10.25 -8.6,-22.57 -6.51,-35.1 0.14,-1.49 0.43,-2.94 0.84,-4.34 3.41,-13.36 11.77,-24.3 22.66,-31.26 11.29,-7.21 25.35,-10.11 39.48,-6.99 14.11,3.11 25.64,11.68 32.87,22.98 7.24,11.34 10.16,25.37 7.08,39.37l-0.64 2.36zm-47.25 -8.26c1.18,-0.72 2.09,-1.82 2.57,-3.17l0.13 -0.68c0.39,-1.8 0.08,-3.53 -0.77,-4.84 -0.86,-1.33 -2.24,-2.36 -3.95,-2.73 -1.69,-0.37 -3.4,-0.01 -4.76,0.85 -1.28,0.82 -2.28,2.19 -2.64,3.85l-0.09 0.11c-0.32,1.44 -0.1,2.9 0.52,4.13l0.34 0.51c0.74,1.18 1.86,2.12 3.18,2.6l0.68 0.13c1.75,0.38 3.46,0.07 4.79,-0.77zm158.04 -1346.27c-3.07,14.14 -11.68,25.72 -23.03,32.96 -11.28,7.2 -25.33,10.11 -39.47,7 -14.11,-3.12 -25.65,-11.69 -32.87,-22.98 -7.24,-11.34 -10.16,-25.38 -7.08,-39.37 3.1,-14.14 11.72,-25.72 23.06,-32.96 11.25,-7.19 25.25,-10.1 39.35,-7.02 14.16,3.04 25.73,11.64 32.98,23 7.18,11.25 10.1,25.25 7.05,39.37zm-47.8 -5.92c1.29,-0.82 2.28,-2.18 2.64,-3.83l0.09 -0.1c0.37,-1.68 0.01,-3.39 -0.86,-4.74 -0.82,-1.28 -2.18,-2.28 -3.85,-2.65l-0.1 -0.09c-1.69,-0.37 -3.39,-0.01 -4.75,0.85 -1.29,0.82 -2.28,2.19 -2.65,3.84 -0.39,1.81 -0.06,3.54 0.77,4.84 0.86,1.33 2.25,2.36 3.95,2.73 1.69,0.37 3.39,0.01 4.75,-0.86z"/>
   <path class="fil8" d="M3878.27 1907.24c-3.49,15.83 -19.15,25.82 -34.97,22.34 -15.83,-3.49 -25.82,-19.14 -22.33,-34.97 3.49,-15.82 19.14,-25.82 34.97,-22.33 15.82,3.49 25.82,19.14 22.33,34.97zm-8.92 -384.87c-3.49,15.82 -19.15,25.82 -34.96,22.33 -15.83,-3.49 -25.82,-19.14 -22.33,-34.97 3.49,-15.82 19.14,-25.82 34.97,-22.33 15.81,3.49 25.82,19.14 22.33,34.96zm-340.53 1135.6c-3.49,15.83 -19.14,25.83 -34.97,22.34 -15.82,-3.49 -25.82,-19.14 -22.33,-34.97 3.49,-15.83 19.15,-25.82 34.97,-22.33 15.83,3.49 25.83,19.14 22.34,34.97zm-220.64 -1795.46c-3.49,15.83 -19.14,25.82 -34.97,22.33 -15.82,-3.49 -25.82,-19.13 -22.33,-34.96 8.31,-37.68 65.61,-25.05 57.3,12.63zm249.25 1341.74c-3.49,15.82 -19.14,25.82 -34.96,22.33 -15.83,-3.49 -25.84,-19.15 -22.34,-34.97 3.49,-15.82 19.14,-25.82 34.98,-22.33 15.81,3.49 25.81,19.14 22.33,34.96zm110.19 -1352.18c-3.49,15.82 -19.14,25.82 -34.97,22.33 -15.82,-3.49 -25.82,-19.14 -22.33,-34.96 3.49,-15.82 19.14,-25.82 34.96,-22.33 15.82,3.49 25.82,19.14 22.33,34.96z"/>
   <path class="fil10" d="M3043.29 2036.91c0,74.35 -73.59,134.63 -164.41,134.63 -90.8,0 -164.42,-60.28 -164.42,-134.63 0,-74.35 73.62,-134.65 164.42,-134.65 90.81,0 164.41,60.3 164.41,134.65zm-1708.6 0c0,74.35 -73.59,134.63 -164.42,134.63 -90.8,0 -164.42,-60.28 -164.42,-134.63 0,-74.35 73.62,-134.65 164.42,-134.65 90.83,0 164.42,60.3 164.42,134.65z"/>
   <path class="fil11" d="M3046.72 2037.01c0,74.52 -73.8,134.95 -164.8,134.95 -91.04,0 -164.8,-60.43 -164.8,-134.95 0,-74.53 73.76,-134.96 164.8,-134.96 91,0 164.8,60.43 164.8,134.96z"/>
   <path class="fil11" d="M1334.18 2037.01c0,74.52 -73.76,134.95 -164.8,134.95 -91.01,0 -164.8,-60.43 -164.8,-134.95 0,-74.53 73.8,-134.96 164.8,-134.96 91.03,0 164.8,60.43 164.8,134.96z"/>
   <path class="fil12" d="M1599.46 1795.53c0,183.99 -84.16,333.14 -187.96,333.14 -103.78,0 -187.93,-149.15 -187.93,-333.14 0,-183.98 84.15,-333.14 187.93,-333.14 103.81,0 187.96,149.16 187.96,333.14zm229.26 315.47l-18.59 -54.7c158.93,-104.72 317.45,-104.67 471.04,0.13l-19.07 54.4c-143.07,-97.7 -284.81,-97.63 -433.39,0.17zm980.57 -315.47c0,183.99 -84.16,333.14 -187.96,333.14 -103.81,0 -187.95,-149.15 -187.95,-333.14 0,-183.98 84.15,-333.14 187.95,-333.14 103.81,0 187.96,149.16 187.96,333.14z"/>
   <path class="fil7" d="M2758.74 1936.1c0,0 -141.22,239.18 -141.22,448.58 0,83.3 36.38,199.64 141.22,199.64 104.83,0 141.22,-116.34 141.22,-199.64 0,-209.4 -141.22,-448.58 -141.22,-448.58z"/>
   <path class="fil13" d="M2758.74 1985.17c-22.32,43.02 -58.48,119.03 -84.85,205.5 -18.9,62.03 -32.78,129.52 -32.78,194 0,23.33 3.04,49.35 9.89,74.12 5.53,19.96 13.51,39.1 24.33,55.34l2.28 3.2c9.62,13.61 21.48,24.98 35.8,32.62 12.81,6.84 27.86,10.78 45.33,10.78 17.5,0 32.55,-3.94 45.36,-10.78 14.38,-7.65 26.23,-19.02 35.85,-32.61 11.96,-16.96 20.66,-37.32 26.54,-58.55 6.85,-24.77 9.89,-50.79 9.89,-74.12 0,-64.48 -13.88,-131.97 -32.78,-194 -26.37,-86.48 -62.53,-162.49 -84.85,-205.5zm-164.8 399.51c0,-214.8 142.99,-457.82 144.53,-460.43l20.27 -34.79 20.3 34.77c1.34,2.33 64.62,110.03 106.89,244.5 21.48,68.33 37.61,143.7 37.61,215.95 0,27.25 -3.67,57.91 -12,87.48 -7.25,25.79 -18.13,50.87 -33.26,72.25 -13.89,19.63 -31.2,36.14 -52.33,47.38 -19.23,10.22 -41.54,16.11 -67.22,16.11 -25.7,0 -48.02,-5.89 -67.26,-16.11 -21.13,-11.23 -38.43,-27.75 -52.33,-47.38l-7.96 -11.25 0.45 -0.23c-11.26,-18.63 -19.71,-39.46 -25.72,-60.79 -8.31,-29.57 -11.99,-60.21 -11.99,-87.47z"/>
  </g>
 </g>
</svg>